<?xml version="1.0" encoding="utf-8"?>
<svg version="1.1" xmlns:xlink="http://www.w3.org/1999/xlink" width="44px" height="44px" xmlns="http://www.w3.org/2000/svg">
  <defs>
    <filter x="201px" y="36px" width="44px" height="44px" filterUnits="userSpaceOnUse" id="filter49">
      <feOffset dx="0" dy="1" in="SourceAlpha" result="shadowOffsetInner" />
      <feGaussianBlur stdDeviation="0.5" in="shadowOffsetInner" result="shadowGaussian" />
      <feComposite in2="shadowGaussian" operator="atop" in="SourceAlpha" result="shadowComposite" />
      <feColorMatrix type="matrix" values="0 0 0 0 0  0 0 0 0 0  0 0 0 0 0  0 0 0 0.313725490196078 0  " in="shadowComposite" />
    </filter>
    <g id="widget50">
      <path d="M 4.66666666666665 0  C 2.08833333333332 0  0 2.08833333333332  0 4.66666666666667  L 0 37.3333333333334  C 0 39.9116666666667  2.08833333333332 42  4.66666666666665 42  L 37.3333333333334 42  C 39.9116666666667 42  42 39.9116666666667  42 37.3333333333334  L 42 4.66666666666667  C 42 2.08833333333332  39.9116666666667 0  37.3333333333334 0  L 4.66666666666665 0  Z M 21 6.99999999999999  C 24.8616666666667 6.99999999999999  28 10.1383333333333  28 14  C 28 17.8733333333333  24.8616666666667 21  21 21  C 17.1383333333333 21  14 17.8733333333333  14 14  C 14 10.1383333333333  17.1383333333333 6.99999999999999  21 6.99999999999999  Z M 7.00000000000001 35  L 7.00000000000001 32.6666666666667  C 7.00000000000001 28  16.3333333333334 25.4333333333334  21 25.4333333333334  C 25.6666666666667 25.4333333333334  35 28  35 32.6666666666667  L 35 35  L 7.00000000000001 35  Z " fill-rule="nonzero" fill="#5c92ff" stroke="none" transform="matrix(1 0 0 1 202 36 )" />
    </g>
  </defs>
  <g transform="matrix(1 0 0 1 -201 -36 )">
    <use xlink:href="#widget50" filter="url(#filter49)" />
    <use xlink:href="#widget50" />
  </g>
</svg>