<?xml version="1.0" encoding="utf-8"?>
<svg version="1.1" xmlns:xlink="http://www.w3.org/1999/xlink" width="29px" height="27px" xmlns="http://www.w3.org/2000/svg">
  <g transform="matrix(1 0 0 1 -277 -269 )">
    <path d="M 11.3335789732253 6.13179448994788  C 12.4021125030705 5.76321667907669  13.5490051584377 5.55547282204022  14.75288626873 5.55547282204022  C 20.2593957258659 5.55547282204022  24.725865880619 9.7572598659717  24.725865880619 14.9374534623976  C 24.725865880619 16.0699925539836  24.5050356177843 17.1489203276247  24.1132399901744 18.1541325390916  L 26.2788012773275 20.1913626209978  C 27.1051338737411 18.6031273268801  27.575288626873 16.8205510052122  27.575288626873 14.9374534623976  C 27.575288626873 8.27624720774386  21.8337017931712 2.87490692479524  14.7457627118644 2.87490692479524  C 12.744043232621 2.87490692479524  10.8563006632277 3.31720029784066  9.16089412920658 4.08786299329859  L 11.3335789732253 6.13179448994788  Z M 27.1692458855318 7.23082650781832  L 29 5.18019359642592  L 22.4534512404814 0.0134028294862249  L 20.6226971260133 2.06403574087863  L 27.1692458855318 7.23082650781832  Z M 3.20560058953576 1.89650037230083  L 1.81650700073693 0.589724497393895  L 0 2.29188384214445  L 1.89486612625892 4.07446016381238  L 0.313436502087939 5.32092330603128  L 2.33652665192827 7.22412509307521  L 3.91795627609925 5.97766195085628  L 5.05772537460085 7.04988830975427  C 3.11299435028248 9.16753536857781  1.93048391058709 11.921816827997  1.93048391058709 14.9374534623976  C 1.93048391058709 21.5986597170514  7.65782363055761 27  14.7457627118644 27  C 17.9584868582658 27  20.8862687300418 25.8808637379002  23.1301891427168 24.0513775130305  L 26.2645541635962 27  L 28.0739376074674 25.2911392405063  L 3.20560058953576 1.89650037230083  Z M 7.07369196757553 8.9463886820551  L 21.1213461066077 22.1615785554728  C 19.3903217882584 23.5085629188384  17.1748956030459 24.319434102755  14.75288626873 24.319434102755  C 9.2463768115942 24.319434102755  4.77990665684108 20.1176470588235  4.77990665684108 14.9374534623976  C 4.77990665684108 12.6589724497394  5.64185703758291 10.5748324646314  7.07369196757553 8.9463886820551  Z M 7.86440677966102 2.86150409530902  L 9.07541144681896 1.90320178704393  L 7.05232129697865 0  L 5.84131662982069 0.958302308265085  L 7.86440677966102 2.86150409530902  Z " fill-rule="nonzero" fill="#a8c5ff" stroke="none" transform="matrix(1 0 0 1 277 269 )" />
  </g>
</svg>