<?xml version="1.0" encoding="utf-8"?>
<svg version="1.1" xmlns:xlink="http://www.w3.org/1999/xlink" width="15px" height="17px" xmlns="http://www.w3.org/2000/svg">
  <g transform="matrix(1 0 0 1 -1244 -530 )">
    <path d="M 15 3.4  C 15 2.46075  14.2541666666667 1.7  13.3333333333333 1.7  L 9.84583333333333 1.7  C 9.50416666666666 0.713999999999997  8.5875 0  7.5 0  C 6.4125 0  5.49583333333334 0.713999999999997  5.15416666666667 1.7  L 1.66666666666667 1.7  C 0.745833333333334 1.7  0 2.46075  0 3.4  L 0 15.3  C 0 16.23925  0.745833333333334 17  1.66666666666667 17  L 13.3333333333333 17  C 14.2541666666667 17  15 16.23925  15 15.3  L 15 3.4  Z M 6.66666666666667 2.55  C 6.66666666666667 2.07825  7.04166666666667 1.7  7.5 1.7  C 7.95833333333333 1.7  8.33333333333333 2.07825  8.33333333333333 2.55  C 8.33333333333333 3.02175  7.95833333333333 3.4  7.5 3.4  C 7.04166666666667 3.4  6.66666666666667 3.02175  6.66666666666667 2.55  Z M 12.5 6.8  L 5.83333333333333 13.6  L 2.5 10.2  L 3.67916666666666 8.99725  L 5.83333333333333 11.1945  L 11.3208333333333 5.59725  L 12.5 6.8  Z " fill-rule="nonzero" fill="#41f2e7" stroke="none" transform="matrix(1 0 0 1 1244 530 )" />
  </g>
</svg>