<?xml version="1.0" encoding="utf-8"?>
<svg version="1.1" xmlns:xlink="http://www.w3.org/1999/xlink" width="25px" height="25px" xmlns="http://www.w3.org/2000/svg">
  <g transform="matrix(1 0 0 1 -8 -8 )">
    <path d="M 20.5 8  C 27.5 8  33 13.5  33 20.5  C 33 27.5  27.5 33  20.5 33  C 13.5 33  8 27.5  8 20.5  C 8 13.5  13.5 8  20.5 8  Z " fill-rule="nonzero" fill="#ffffff" stroke="none" fill-opacity="0" />
    <path d="M 20.5 8.5  C 27.22 8.5  32.5 13.78  32.5 20.5  C 32.5 27.22  27.22 32.5  20.5 32.5  C 13.78 32.5  8.5 27.22  8.5 20.5  C 8.5 13.78  13.78 8.5  20.5 8.5  Z " stroke-width="1" stroke="#7de84a" fill="none" />
  </g>
</svg>