<?xml version="1.0" encoding="utf-8"?>
<svg version="1.1" xmlns:xlink="http://www.w3.org/1999/xlink" width="33px" height="33px" xmlns="http://www.w3.org/2000/svg">
  <g transform="matrix(1 0 0 1 -4 -4 )">
    <path d="M 20.5 5  C 29.18 5  36 11.82  36 20.5  C 36 29.18  29.18 36  20.5 36  C 11.82 36  5 29.18  5 20.5  C 5 11.82  11.82 5  20.5 5  Z " fill-rule="nonzero" fill="#ffffff" stroke="none" fill-opacity="0" />
    <path d="M 20.5 5  C 29.18 5  36 11.82  36 20.5  C 36 29.18  29.18 36  20.5 36  C 11.82 36  5 29.18  5 20.5  C 5 11.82  11.82 5  20.5 5  Z " stroke-width="2" stroke="#7de84a" fill="none" />
  </g>
</svg>