<?xml version="1.0" encoding="utf-8"?>
<svg version="1.1" xmlns:xlink="http://www.w3.org/1999/xlink" width="32px" height="23px" xmlns="http://www.w3.org/2000/svg">
  <g transform="matrix(1 0 0 1 -316 -569 )">
    <path d="M 32 11.5  L 26.1818181818182 5.74999999999999  L 20.3636363636364 11.5  L 24.7272727272727 11.5  C 24.7272727272727 16.2653125  20.8218181818182 20.125  16 20.125  C 14.5236363636364 20.125  13.1418181818182 19.7584375  11.92 19.1259375  L 9.79636363636364 21.2246875  C 11.6 22.33875  13.7163636363636 23  16 23  C 22.4290909090909 23  27.6363636363636 17.85375  27.6363636363636 11.5  L 32 11.5  Z M 11.6363636363636 11.5  L 7.27272727272727 11.5  C 7.27272727272727 6.7346875  11.1781818181818 2.875  16 2.875  C 17.4763636363636 2.875  18.8581818181818 3.2415625  20.08 3.87406250000001  L 22.2036363636364 1.77531250000001  C 20.4 0.661249999999988  18.2836363636364 0  16 0  C 9.57090909090908 0  4.36363636363636 5.14625000000001  4.36363636363636 11.5  L 0 11.5  L 5.81818181818181 17.25  L 11.6363636363636 11.5  Z " fill-rule="nonzero" fill="#37abff" stroke="none" transform="matrix(1 0 0 1 316 569 )" />
  </g>
</svg>