<?xml version="1.0" encoding="utf-8"?>
<svg version="1.1" xmlns:xlink="http://www.w3.org/1999/xlink" width="16px" height="12px" xmlns="http://www.w3.org/2000/svg">
  <g transform="matrix(1 0 0 1 -16 -7 )">
    <path d="M 16 5.99999999999999  L 13.0909090909091 3  L 10.1818181818182 5.99999999999999  L 12.3636363636364 5.99999999999999  C 12.3636363636364 8.48625  10.4109090909091 10.5  8 10.5  C 7.26181818181819 10.5  6.57090909090909 10.30875  5.96 9.97875000000001  L 4.89818181818182 11.07375  C 5.8 11.655  6.85818181818182 12  8 12  C 11.2145454545455 12  13.8181818181818 9.315  13.8181818181818 5.99999999999999  L 16 5.99999999999999  Z M 5.81818181818182 5.99999999999999  L 3.63636363636363 5.99999999999999  C 3.63636363636363 3.51375  5.58909090909091 1.5  8 1.5  C 8.73818181818181 1.5  9.42909090909091 1.69125  10.04 2.02125000000001  L 11.1018181818182 0.926250000000007  C 10.2 0.344999999999994  9.14181818181818 0  8 0  C 4.78545454545454 0  2.18181818181818 2.685  2.18181818181818 5.99999999999999  L 0 5.99999999999999  L 2.90909090909091 9  L 5.81818181818182 5.99999999999999  Z " fill-rule="nonzero" fill="#ffffff" stroke="none" fill-opacity="0.996078431372549" transform="matrix(1 0 0 1 16 7 )" />
  </g>
</svg>