<?xml version="1.0" encoding="utf-8"?>
<svg version="1.1" xmlns:xlink="http://www.w3.org/1999/xlink" width="14px" height="16px" xmlns="http://www.w3.org/2000/svg">
  <g transform="matrix(1 0 0 1 -148 -155 )">
    <path d="M 10.3157894736842 1.45454545454545  L 10.3157894736842 0  L 1.47368421052632 0  C 0.659473684210526 0  0 0.650909090909091  0 1.45454545454545  L 0 11.6363636363636  L 1.47368421052632 11.6363636363636  L 1.47368421052632 1.45454545454545  L 10.3157894736842 1.45454545454545  Z M 14 4.36363636363636  C 14 3.56  13.3405263157895 2.90909090909091  12.5263157894737 2.90909090909091  L 4.42105263157895 2.90909090909091  C 3.60684210526316 2.90909090909091  2.94736842105263 3.56  3 4.36363636363636  L 3 14.5454545454545  C 2.94736842105263 15.3490909090909  3.60684210526316 16  4.42105263157895 16  L 12.5263157894737 16  C 13.3405263157895 16  14 15.3490909090909  14 14.5454545454545  L 14 4.36363636363636  Z M 12.5263157894737 4.36363636363636  L 12.5263157894737 14.5454545454545  L 4.42105263157895 14.5454545454545  L 4.42105263157895 4.36363636363636  L 12.5263157894737 4.36363636363636  Z " fill-rule="nonzero" fill="#ffffff" stroke="none" transform="matrix(1 0 0 1 148 155 )" />
  </g>
</svg>