<?xml version="1.0" standalone="no"?><!DOCTYPE svg PUBLIC "-//W3C//DTD SVG 1.1//EN" "http://www.w3.org/Graphics/SVG/1.1/DTD/svg11.dtd"><svg t="1636628328451" class="icon" viewBox="0 0 1024 1024" version="1.1" xmlns="http://www.w3.org/2000/svg" p-id="5469" width="20" height="20" xmlns:xlink="http://www.w3.org/1999/xlink"><defs><style type="text/css"></style></defs><path d="M714.8 198.3C660.5 143.9 588.2 114 511.3 114s-149.1 29.9-203.5 84.3c-54.4 54.4-84.3 126.6-84.3 203.5 0 39.3 7.8 77.3 23.1 113.1 14.8 34.5 35.8 65.4 62.7 91.8 11.9 13 23.1 24.5 32.9 34.7 43 44.4 66.7 68.8 74.2 134 3.8 33.7 6.8 117.8 6.8 118.6l0.4 11.1h51.3c5.3 13.4 19.6 23.1 36.5 23.1s31.2-9.6 36.5-23.1h51.3l0.4-11.1c0-0.8 3-85 6.8-118.6 7.4-65.2 31.1-89.6 74.2-134 9.8-10.2 21-21.6 32.9-34.7 26.8-26.4 47.9-57.3 62.7-91.8 15.3-35.8 23.1-73.9 23.1-113.1-0.2-76.9-30.1-149.1-84.5-203.5zM584.5 721.8c-3 9-5.5 18.8-7.5 29.6l-128.7 17.5c-1.2-10.1-2.8-19.3-4.8-27.9l141-19.2z m-147.4-3.1c-14.3-40.8-38.9-66.2-71.6-99.9-9.7-10-20.7-21.3-32.4-34.2-49.7-48.9-77-113.8-77-182.8 0-140.8 114.5-255.3 255.3-255.3S766.6 261 766.6 401.8c0 69-27.1 133.6-76.3 182-12.5 13.6-23.5 24.9-33.2 35-26.6 27.4-47.8 49.3-62.5 78.4l-157.5 21.5zM581 802.5l-7.4 1c0.7-10.9 1.5-20.9 2.4-28.9l7.4-1c-0.8 7.9-1.6 17.9-2.4 28.9z m-128.7 17.6c-0.6-9.8-1.2-19.5-1.9-28.3L573.7 775c-0.8 8-1.6 18.1-2.3 28.9l-119.1 16.2z m117.6 7.1c-0.9 16.7-1.6 33.1-2.2 45.4H454.9c-0.3-8.3-0.8-18.6-1.3-29.6l116.3-15.8z m-121.7-35.1c0.7 8.8 1.3 18.5 1.9 28.3l-7.2 1c-0.6-9.8-1.2-19.5-1.8-28.3l7.1-1zM587.1 750l-7.6 1c2-10.8 4.6-20.6 7.6-29.6l8.2-1.1c-3.3 9.1-6.1 18.9-8.2 29.7zM446 769.2l-7.2 1c-1.2-10.1-2.9-19.3-4.9-27.9l7.3-1c2 8.6 3.6 17.9 4.8 27.9z m-0.3 113c-0.4-9.1-0.9-22.8-1.7-37.9l7.2-1c0.6 11.4 1 22 1.4 30.5v1.1H570v-1.1c0.5-12.5 1.3-29.6 2.2-46.9l7.3-1c-1.2 21.8-2.1 43.6-2.6 56.3H445.7z m251.4-291.6l-0.4 0.4c-11.8 12.9-22.9 24.3-32.6 34.4-24 24.7-43.5 44.9-57.5 70.2l-9 1.2c14.5-28.2 35.4-49.7 61.3-76.5 9.7-10 20.7-21.4 33.2-35 49.6-48.8 77-114 77-183.6 0-142-115.6-257.6-257.6-257.6-142 0-257.6 115.6-257.6 257.6 0 69.6 27.6 135.1 77.7 184.4 11.7 12.8 22.7 24.2 32.5 34.3 32.3 33.3 56.7 58.5 70.9 98.6l-7.4 1c-13.9-38.1-37.5-62.4-68.7-94.6-9.8-10.1-20.9-21.5-32.6-34.4l-0.4-0.4c-51-50.2-79.1-117.3-79.1-188.8 0-70.7 27.6-137.3 77.6-187.3 50-50 116.5-77.6 187.3-77.6 70.7 0 137.3 27.6 187.3 77.6s77.6 116.5 77.6 187.3c-0.4 71.6-28.5 138.6-79.5 188.8z" fill="" p-id="5470"></path><path d="M321.4 285.1l11.7 7.2c18.4-29.9 44.3-54.9 74.7-72.3 31.4-17.9 67.2-27.4 103.5-27.4v-13.8c-38.7 0-76.8 10.1-110.3 29.2-32.4 18.7-59.9 45.3-79.6 77.1zM288.4 401.8h13.8c0-21.5 3.3-42.7 9.7-63l-13.1-4.2c-6.9 21.7-10.4 44.3-10.4 67.2z" fill="" p-id="5471"></path></svg>