<?xml version="1.0" encoding="utf-8"?>
<svg version="1.1" xmlns:xlink="http://www.w3.org/1999/xlink" width="17px" height="17px" xmlns="http://www.w3.org/2000/svg">
  <g transform="matrix(1 0 0 1 -302 -159 )">
    <path d="M 17 8.5  C 17 3.80375  13.192 0  8.5 0  C 3.808 0  0 3.80375  0 8.5  C 0 13.19625  3.808 17  8.5 17  C 13.192 17  17 13.19625  17 8.5  Z M 9.35 11.05  L 9.35 12.75  L 7.65 12.75  L 7.65 11.05  L 9.35 11.05  Z M 9.35 4.25  L 9.35 9.35  L 7.65 9.35  L 7.65 4.25  L 9.35 4.25  Z " fill-rule="nonzero" fill="#ffffff" stroke="none" transform="matrix(1 0 0 1 302 159 )" />
  </g>
</svg>