<?xml version="1.0" encoding="utf-8"?>
<svg version="1.1" xmlns:xlink="http://www.w3.org/1999/xlink" width="29px" height="27px" xmlns="http://www.w3.org/2000/svg">
  <g transform="matrix(1 0 0 1 -146 -269 )">
    <path d="M 20.3 10.01025  L 18.24825 8.1  L 14.5 11.58975  L 10.75175 8.1  L 8.7 10.01025  L 12.44825 13.5  L 8.7 16.98975  L 10.75175 18.9  L 14.5 15.41025  L 18.24825 18.9  L 20.3 16.98975  L 16.55175 13.5  L 20.3 10.01025  Z M 29 13.5  C 29 6.04125  22.51125 0  14.5 0  C 6.48875 0  0 6.04125  0 13.5  C 0 20.95875  6.48875 27  14.5 27  C 22.51125 27  29 20.95875  29 13.5  Z M 26.1 13.5  C 26.1 19.4535  20.8945 24.3  14.5 24.3  C 8.1055 24.3  2.9 19.4535  2.9 13.5  C 2.9 7.5465  8.1055 2.7  14.5 2.7  C 20.8945 2.7  26.1 7.5465  26.1 13.5  Z " fill-rule="nonzero" fill="#a8c5ff" stroke="none" transform="matrix(1 0 0 1 146 269 )" />
  </g>
</svg>