<?xml version="1.0" encoding="utf-8"?>
<svg version="1.1" xmlns:xlink="http://www.w3.org/1999/xlink" width="16px" height="16px" xmlns="http://www.w3.org/2000/svg">
  <g transform="matrix(1 0 0 1 -282 -20 )">
    <path d="M 16 8  C 16 3.58  12.42 0  8 0  C 3.58 0  0 3.58  0 8  C 0 12.42  3.58 16  8 16  C 12.42 16  16 12.42  16 8  Z M 11.92 13.052  C 10.836 13.892  9.48 14.4  8 14.4  C 4.464 14.4  1.6 11.536  1.6 8  C 1.6 6.52  2.108 5.164  2.948 4.08  L 11.92 13.052  Z M 14.4 8  C 14.4 9.48  13.892 10.836  13.052 11.92  L 4.08 2.948  C 5.164 2.108  6.52 1.6  8 1.6  C 11.536 1.6  14.4 4.464  14.4 8  Z " fill-rule="nonzero" fill="#ffffff" stroke="none" transform="matrix(1 0 0 1 282 20 )" />
  </g>
</svg>