<?xml version="1.0" encoding="utf-8"?>
<svg version="1.1" xmlns:xlink="http://www.w3.org/1999/xlink" width="16px" height="16px" xmlns="http://www.w3.org/2000/svg">
  <g transform="matrix(1 0 0 1 -14 -40 )">
    <path d="M 6.4 4.4  L 6.4 11.6  L 11.2 8  L 6.4 4.4  Z M 16 8  C 16 3.58  12.42 0  8 0  C 3.58 0  0 3.58  0 8  C 0 12.42  3.58 16  8 16  C 12.42 16  16 12.42  16 8  Z M 14.4 8  C 14.4 11.528  11.528 14.4  8 14.4  C 4.472 14.4  1.6 11.528  1.6 8  C 1.6 4.472  4.472 1.6  8 1.6  C 11.528 1.6  14.4 4.472  14.4 8  Z " fill-rule="nonzero" fill="#a8c5ff" stroke="none" transform="matrix(1 0 0 1 14 40 )" />
  </g>
</svg>