<?xml version="1.0" encoding="utf-8"?>
<svg version="1.1" xmlns:xlink="http://www.w3.org/1999/xlink" width="16px" height="16px" xmlns="http://www.w3.org/2000/svg">
  <g transform="matrix(1 0 0 1 -1776 -394 )">
    <path d="M 16 14.6369353916524  L 11.4351057747284 10.062893081761  L 10.7078330474557 10.062893081761  L 10.4562607204117 9.81132075471698  C 11.3527730131504 8.77301315037164  11.8925100057176 7.42367066895369  11.8925100057176 5.94625500285878  C 11.8925100057176 2.66209262435678  9.23041738136078 0  5.94625500285878 0  C 2.66209262435678 0  0 2.66209262435678  0 5.94625500285878  C 0 9.23041738136078  2.66209262435678 11.8925100057176  5.94625500285878 11.8925100057176  C 7.42367066895369 11.8925100057176  8.77301315037164 11.3527730131504  9.81132075471698 10.4608347627216  L 10.062893081761 10.7124070897656  L 10.062893081761 11.4351057747284  L 14.6369353916524 16  L 16 14.6369353916524  Z M 10.062893081761 5.94625500285878  C 10.062893081761 8.21955403087478  8.21955403087479 10.062893081761  5.94625500285878 10.062893081761  C 3.67295597484277 10.062893081761  1.82961692395655 8.21955403087478  1.82961692395655 5.94625500285878  C 1.82961692395655 3.67295597484277  3.67295597484277 1.82961692395655  5.94625500285878 1.82961692395655  C 8.21955403087479 1.82961692395655  10.062893081761 3.67295597484277  10.062893081761 5.94625500285878  Z " fill-rule="nonzero" fill="#ffffff" stroke="none" transform="matrix(1 0 0 1 1776 394 )" />
  </g>
</svg>