<?xml version="1.0" encoding="utf-8"?>
<svg version="1.1" xmlns:xlink="http://www.w3.org/1999/xlink" width="19px" height="21px" xmlns="http://www.w3.org/2000/svg">
  <g transform="matrix(1 0 0 1 -1750 -23 )">
    <path d="M 9.5 20.0625  C 9.62179487179487 20.0625  9.68269230769231 20  9.68269230769231 19.875  C 9.68269230769231 19.75  9.62179487179487 19.6875  9.5 19.6875  C 9.05088141025641 19.6875  8.66456330128205 19.521484375  8.34104567307692 19.189453125  C 8.0175280448718 18.857421875  7.85576923076923 18.4609375  7.85576923076923 18  C 7.85576923076923 17.875  7.7948717948718 17.8125  7.67307692307692 17.8125  C 7.55128205128205 17.8125  7.49038461538462 17.875  7.49038461538462 18  C 7.49038461538462 18.5703125  7.68639823717949 19.056640625  8.07842548076923 19.458984375  C 8.47045272435897 19.861328125  8.9443108974359 20.0625  9.5 20.0625  Z M 5.11538461538462 6.75  C 5.11538461538462 10.90625  4.10296474358974 14.15625  2.078125 16.5  L 16.921875 16.5  C 14.8970352564103 14.15625  13.8846153846154 10.90625  13.8846153846154 6.75  C 13.8846153846154 6.3515625  13.7932692307692 5.94140625  13.6105769230769 5.51953125  C 13.4278846153846 5.09765625  13.1652644230769 4.6953125  12.8227163461538 4.3125  C 12.4801682692308 3.9296875  12.0177283653846 3.615234375  11.4353966346154 3.369140625  C 10.8530649038462 3.123046875  10.2079326923077 3  9.5 3  C 8.79206730769231 3  8.14693509615385 3.123046875  7.56460336538462 3.369140625  C 6.98227163461539 3.615234375  6.51983173076923 3.9296875  6.17728365384615 4.3125  C 5.83473557692308 4.6953125  5.57211538461539 5.09765625  5.38942307692308 5.51953125  C 5.20673076923077 5.94140625  5.11538461538462 6.3515625  5.11538461538462 6.75  Z M 17.9609375 15.46875  C 18.2730368589744 15.828125  18.619391025641 16.171875  19 16.5  C 19 16.90625  18.8553685897436 17.2578125  18.5661057692308 17.5546875  C 18.2768429487179 17.8515625  17.9342948717949 18  17.5384615384615 18  L 12.4230769230769 18  C 12.4230769230769 18.828125  12.1376201923077 19.53515625  11.5667067307692 20.12109375  C 10.9957932692308 20.70703125  10.306891025641 21  9.5 21  C 8.69310897435897 21  8.00420673076923 20.70703125  7.43329326923077 20.12109375  C 6.86237980769231 19.53515625  6.57692307692308 18.828125  6.57692307692308 18  L 1.46153846153846 18  C 1.06570512820513 18  0.723157051282051 17.8515625  0.433894230769231 17.5546875  C 0.14463141025641 17.2578125  0 16.90625  0 16.5  C 0.380608974358974 16.171875  0.726963141025641 15.828125  1.0390625 15.46875  C 1.35116185897436 15.109375  1.67467948717949 14.642578125  2.00961538461538 14.068359375  C 2.34455128205128 13.494140625  2.62810496794872 12.875  2.86027644230769 12.2109375  C 3.09244791666667 11.546875  3.28275240384615 10.7421875  3.43118990384615 9.796875  C 3.57962740384615 8.8515625  3.65384615384615 7.8359375  3.65384615384615 6.75  C 3.65384615384615 5.5625  4.09915865384615 4.458984375  4.98978365384615 3.439453125  C 5.88040865384615 2.419921875  7.04887820512821 1.80078125  8.49519230769231 1.58203125  C 8.43429487179487 1.43359375  8.40384615384615 1.28125  8.40384615384615 1.125  C 8.40384615384615 0.812499999999999  8.51041666666667 0.546874999999999  8.72355769230769 0.328125  C 8.93669871794872 0.109375000000001  9.19551282051282 0  9.5 0  C 9.80448717948718 0  10.0633012820513 0.109375000000001  10.2764423076923 0.328125  C 10.4895833333333 0.546874999999999  10.5961538461538 0.812499999999999  10.5961538461538 1.125  C 10.5961538461538 1.28125  10.5657051282051 1.43359375  10.5048076923077 1.58203125  C 11.9511217948718 1.80078125  13.1195913461538 2.419921875  14.0102163461538 3.439453125  C 14.9008413461538 4.458984375  15.3461538461538 5.5625  15.3461538461538 6.75  C 15.3461538461538 7.8359375  15.4203725961538 8.8515625  15.5688100961538 9.796875  C 15.7172475961538 10.7421875  15.9075520833333 11.546875  16.1397235576923 12.2109375  C 16.3718950320513 12.875  16.6554487179487 13.494140625  16.9903846153846 14.068359375  C 17.3253205128205 14.642578125  17.6488381410256 15.109375  17.9609375 15.46875  Z " fill-rule="nonzero" fill="#5ebdff" stroke="none" transform="matrix(1 0 0 1 1750 23 )" />
  </g>
</svg>