<?xml version="1.0" encoding="utf-8"?>
<svg version="1.1" xmlns:xlink="http://www.w3.org/1999/xlink" width="101px" height="101px" xmlns="http://www.w3.org/2000/svg">
  <g transform="matrix(1 0 0 1 -441 -227 )">
    <path d="M 492.000061840216 227.502448848563  C 519.383985058815 227.770756060241  541.5 250.052641998643  541.5 277.5  C 541.5 305.11423749154  519.11423749154 327.5  491.5 327.5  C 487.880268492729 327.5  484.271735224625 327.106930378504  480.73781084667 326.328017434595  L 491.987179540617 277.612499312019  A 0.5 0.5 0 0 0 492 277.5 L 492.000061721015 227.502448847395  Z " fill-rule="nonzero" fill="#1890ff" stroke="none" />
    <path d="M 492.000061840216 227.502448848563  C 519.383985058815 227.770756060241  541.5 250.052641998643  541.5 277.5  C 541.5 305.11423749154  519.11423749154 327.5  491.5 327.5  C 487.880268492729 327.5  484.271735224625 327.106930378504  480.73781084667 326.328017434595  L 491.987179540617 277.612499312019  A 0.5 0.5 0 0 0 492 277.5 L 492.000061721015 227.502448847395  Z " stroke-width="1" stroke="#2d3d88" fill="none" />
  </g>
</svg>