<?xml version="1.0" encoding="utf-8"?>
<svg version="1.1" xmlns:xlink="http://www.w3.org/1999/xlink" width="350px" height="79px" xmlns="http://www.w3.org/2000/svg">
  <g transform="matrix(1 0 0 1 -1570 -59 )">
    <path d="M 1571 61  A 1 1 0 0 1 1572 60 L 1918 60  A 1 1 0 0 1 1919 61 L 1919 136  A 1 1 0 0 1 1918 137 L 1572 137  A 1 1 0 0 1 1571 136 L 1571 61  Z " fill-rule="nonzero" fill="#5b92ff" stroke="none" fill-opacity="0.247058823529412" />
    <path d="M 1570.5 61  A 1.5 1.5 0 0 1 1572 59.5 L 1918 59.5  A 1.5 1.5 0 0 1 1919.5 61 L 1919.5 136  A 1.5 1.5 0 0 1 1918 137.5 L 1572 137.5  A 1.5 1.5 0 0 1 1570.5 136 L 1570.5 61  Z " stroke-width="1" stroke="#5b92ff" fill="none" stroke-opacity="0.149019607843137" />
  </g>
</svg>