<?xml version="1.0" encoding="utf-8"?>
<svg version="1.1" xmlns:xlink="http://www.w3.org/1999/xlink" width="14px" height="14px" xmlns="http://www.w3.org/2000/svg">
  <g transform="matrix(1 0 0 1 -1680 -78 )">
    <path d="M 1687 79  C 1690.36 79  1693 81.64  1693 85  C 1693 88.36  1690.36 91  1687 91  C 1683.64 91  1681 88.36  1681 85  C 1681 81.64  1683.64 79  1687 79  Z " fill-rule="nonzero" fill="#2d3d88" stroke="none" />
    <path d="M 1687 79  C 1690.36 79  1693 81.64  1693 85  C 1693 88.36  1690.36 91  1687 91  C 1683.64 91  1681 88.36  1681 85  C 1681 81.64  1683.64 79  1687 79  Z " stroke-width="2" stroke="#41f2e7" fill="none" />
  </g>
</svg>