<?xml version="1.0" encoding="utf-8"?>
<svg version="1.1" xmlns:xlink="http://www.w3.org/1999/xlink" width="17px" height="4px" xmlns="http://www.w3.org/2000/svg">
  <g transform="matrix(1 0 0 1 -650 -275 )">
    <path d="M 4.25 2  C 4.25 0.895  3.2990625 0  2.125 0  C 0.9509375 0  0 0.895  0 2  C 0 3.105  0.9509375 4  2.125 4  C 3.2990625 4  4.25 3.105  4.25 2  Z M 17 2  C 17 0.895  16.0490625 0  14.875 0  C 13.7009375 0  12.75 0.895  12.75 2  C 12.75 3.105  13.7009375 4  14.875 4  C 16.0490625 4  17 3.105  17 2  Z M 10.625 2  C 10.625 0.895  9.6740625 0  8.5 0  C 7.3259375 0  6.375 0.895  6.375 2  C 6.375 3.105  7.3259375 4  8.5 4  C 9.6740625 4  10.625 3.105  10.625 2  Z " fill-rule="nonzero" fill="#5b92ff" stroke="none" transform="matrix(1 0 0 1 650 275 )" />
  </g>
</svg>