<?xml version="1.0" encoding="utf-8"?>
<svg version="1.1" xmlns:xlink="http://www.w3.org/1999/xlink" width="18px" height="18px" xmlns="http://www.w3.org/2000/svg">
  <defs>
    <filter x="129px" y="268px" width="18px" height="18px" filterUnits="userSpaceOnUse" id="filter69">
      <feOffset dx="0" dy="0" in="SourceAlpha" result="shadowOffsetInner" />
      <feGaussianBlur stdDeviation="2.5" in="shadowOffsetInner" result="shadowGaussian" />
      <feComposite in2="shadowGaussian" operator="atop" in="SourceAlpha" result="shadowComposite" />
      <feColorMatrix type="matrix" values="0 0 0 0 1  0 0 0 0 0.2  0 0 0 0 0.6  0 0 0 1 0  " in="shadowComposite" />
    </filter>
    <g id="widget70">
      <path d="M 138 273  C 140.24 273  142 274.76  142 277  C 142 279.24  140.24 281  138 281  C 135.76 281  134 279.24  134 277  C 134 274.76  135.76 273  138 273  Z " fill-rule="nonzero" fill="#ff3399" stroke="none" />
      <path d="M 138 273.5  C 139.96 273.5  141.5 275.04  141.5 277  C 141.5 278.96  139.96 280.5  138 280.5  C 136.04 280.5  134.5 278.96  134.5 277  C 134.5 275.04  136.04 273.5  138 273.5  Z " stroke-width="1" stroke="#314695" fill="none" />
    </g>
  </defs>
  <g transform="matrix(1 0 0 1 -129 -268 )">
    <use xlink:href="#widget70" filter="url(#filter69)" />
    <use xlink:href="#widget70" />
  </g>
</svg>