<?xml version="1.0" encoding="utf-8"?>
<svg version="1.1" xmlns:xlink="http://www.w3.org/1999/xlink" width="264px" height="32px" xmlns="http://www.w3.org/2000/svg">
  <g transform="matrix(1 0 0 1 -1214 -29 )">
    <path d="M 1215 33  A 3 3 0 0 1 1218 30 L 1474 30  A 3 3 0 0 1 1477 33 L 1477 57  A 3 3 0 0 1 1474 60 L 1218 60  A 3 3 0 0 1 1215 57 L 1215 33  Z " fill-rule="nonzero" fill="#212d66" stroke="none" />
    <path d="M 1214.5 33  A 3.5 3.5 0 0 1 1218 29.5 L 1474 29.5  A 3.5 3.5 0 0 1 1477.5 33 L 1477.5 57  A 3.5 3.5 0 0 1 1474 60.5 L 1218 60.5  A 3.5 3.5 0 0 1 1214.5 57 L 1214.5 33  Z " stroke-width="1" stroke="#ffffff" fill="none" stroke-opacity="0.145098039215686" />
  </g>
</svg>