<?xml version="1.0" encoding="utf-8"?>
<svg version="1.1" xmlns:xlink="http://www.w3.org/1999/xlink" width="16px" height="16px" xmlns="http://www.w3.org/2000/svg">
  <g transform="matrix(1 0 0 1 -1352 -403 )">
    <path d="M 9.05567928730512 13.4471153846154  C 9.11210096510765 13.3862179487179  9.14031180400891 13.3108974358974  9.14031180400891 13.2211538461538  L 9.14031180400891 11.3942307692308  C 9.14031180400891 11.3044871794872  9.11210096510765 11.2291666666667  9.05567928730512 11.1682692307692  C 8.9992576095026 11.1073717948718  8.93244246473645 11.0769230769231  8.85523385300668 11.0769230769231  L 7.14476614699332 11.0769230769231  C 7.06755753526355 11.0769230769231  7.0007423904974 11.1073717948718  6.94432071269488 11.1682692307692  C 6.88789903489235 11.2291666666667  6.85968819599109 11.3044871794872  6.85968819599109 11.3942307692308  L 6.85968819599109 13.2211538461538  C 6.85968819599109 13.3108974358974  6.88789903489235 13.3862179487179  6.94432071269488 13.4471153846154  C 7.0007423904974 13.5080128205128  7.06755753526355 13.5384615384615  7.14476614699332 13.5384615384615  L 8.85523385300668 13.5384615384615  C 8.93244246473645 13.5384615384615  8.9992576095026 13.5080128205128  9.05567928730512 13.4471153846154  Z M 9.02895322939866 9.78365384615385  C 9.08537490720119 9.74198717948718  9.11655530809206 9.68910256410256  9.12249443207127 9.625  L 9.28285077951002 5.21153846153846  C 9.28285077951002 5.13461538461539  9.25315515961396 5.07371794871795  9.19376391982183 5.02884615384615  C 9.11655530809206 4.95833333333333  9.0452858203415 4.92307692307692  8.97995545657016 4.92307692307692  L 7.02004454342984 4.92307692307692  C 6.9547141796585 4.92307692307692  6.88344469190794 4.95833333333333  6.80623608017817 5.02884615384615  C 6.74684484038604 5.07371794871795  6.71714922048998 5.14102564102564  6.71714922048998 5.23076923076923  L 6.86859688195991 9.625  C 6.86859688195991 9.68910256410256  6.89829250185598 9.74198717948718  6.95768374164811 9.78365384615385  C 7.01707498144024 9.82532051282051  7.08834446919079 9.84615384615385  7.17149220489978 9.84615384615385  L 8.8195991091314 9.84615384615385  C 8.90274684484039 9.84615384615385  8.97253155159614 9.82532051282051  9.02895322939866 9.78365384615385  Z M 8.57906458797327 0.173076923076923  C 8.75723830734967 0.288461538461538  8.89680772086117 0.445512820512819  8.9977728285078 0.64423076923077  L 15.8396436525612 14.1826923076923  C 16.0475129918337 14.5865384615385  16.0415738678545 14.9903846153846  15.8218262806236 15.3942307692308  C 15.720861172977 15.5801282051282  15.5827765404603 15.7275641025641  15.4075723830735 15.8365384615385  C 15.2323682256867 15.9455128205128  15.0438010393467 16  14.8418708240535 16  L 1.15812917594655 16  C 0.956198960653304 16  0.767631774313289 15.9455128205128  0.592427616926503 15.8365384615385  C 0.417223459539718 15.7275641025641  0.279138827023014 15.5801282051282  0.178173719376392 15.3942307692308  C -0.0415738678544915 14.9903846153846  -0.0475129918337045 14.5865384615385  0.160356347438753 14.1826923076923  L 7.0022271714922 0.64423076923077  C 7.10319227913883 0.445512820512819  7.24276169265034 0.288461538461538  7.42093541202673 0.173076923076923  C 7.59910913140312 0.0576923076923084  7.79213066072754 0  8 0  C 8.20786933927246 0  8.40089086859688 0.0576923076923084  8.57906458797327 0.173076923076923  Z " fill-rule="nonzero" fill="#f76f6f" stroke="none" transform="matrix(1 0 0 1 1352 403 )" />
  </g>
</svg>