<?xml version="1.0" encoding="utf-8"?>
<svg version="1.1" xmlns:xlink="http://www.w3.org/1999/xlink" width="20px" height="20px" xmlns="http://www.w3.org/2000/svg">
  <defs>
    <filter x="-5px" y="-5px" width="20px" height="20px" filterUnits="userSpaceOnUse" id="filter98">
      <feOffset dx="0" dy="0" in="SourceAlpha" result="shadowOffsetInner" />
      <feGaussianBlur stdDeviation="2.5" in="shadowOffsetInner" result="shadowGaussian" />
      <feComposite in2="shadowGaussian" operator="atop" in="SourceAlpha" result="shadowComposite" />
      <feColorMatrix type="matrix" values="0 0 0 0 0.341176470588235  0 0 0 0 0.984313725490196  0 0 0 0 0.0392156862745098  0 0 0 1 0  " in="shadowComposite" />
    </filter>
    <g id="widget99">
      <path d="M 5 1  C 7.24 1  9 2.76  9 5  C 9 7.24  7.24 9  5 9  C 2.76 9  1 7.24  1 5  C 1 2.76  2.76 1  5 1  Z " fill-rule="nonzero" fill="#57fb0a" stroke="none" />
      <path d="M 5 1  C 7.24 1  9 2.76  9 5  C 9 7.24  7.24 9  5 9  C 2.76 9  1 7.24  1 5  C 1 2.76  2.76 1  5 1  Z " stroke-width="2" stroke="#314695" fill="none" />
    </g>
  </defs>
  <g transform="matrix(1 0 0 1 5 5 )">
    <use xlink:href="#widget99" filter="url(#filter98)" />
    <use xlink:href="#widget99" />
  </g>
</svg>