<?xml version="1.0" encoding="utf-8"?>
<svg version="1.1" xmlns:xlink="http://www.w3.org/1999/xlink" width="16px" height="14px" xmlns="http://www.w3.org/2000/svg">
  <g transform="matrix(1 0 0 1 -1712 -27 )">
    <path d="M 14.8541666666667 8.53545673076923  C 14.9069444444444 8.48217147435897  14.9333333333333 8.41907051282051  14.9333333333333 8.34615384615385  L 14.9333333333333 1.34615384615385  C 14.9333333333333 1.27323717948718  14.9069444444444 1.21013621794872  14.8541666666667 1.15685096153846  C 14.8013888888889 1.1035657051282  14.7388888888889 1.07692307692308  14.6666666666667 1  L 1.33333333333333 1  C 1.26111111111111 1.07692307692308  1.19861111111111 1.1035657051282  1.14583333333333 1.15685096153846  C 1.09305555555556 1.21013621794872  1.06666666666667 1.27323717948718  1.06666666666667 1.34615384615385  L 1.06666666666667 8.34615384615385  C 1.06666666666667 8.41907051282051  1.09305555555556 8.48217147435897  1.14583333333333 8.53545673076923  C 1.19861111111111 8.58874198717949  1.26111111111111 8.61538461538462  1.33333333333333 8.61538461538462  L 14.6666666666667 8.61538461538462  C 14.7388888888889 8.61538461538462  14.8013888888889 8.58874198717949  14.8541666666667 8.53545673076923  Z M 15.6083333333333 0.395432692307692  C 15.8694444444444 0.659054487179487  16 0.975961538461538  16 1.34615384615385  L 16 10.5  C 16 10.8701923076923  15.8694444444444 11.1870993589744  15.6083333333333 11.4507211538462  C 15.3472222222222 11.7143429487179  15.0333333333333 11.8461538461538  14.6666666666667 11.8461538461538  L 10.1333333333333 11.8461538461538  C 10.1333333333333 12.0536858974359  10.1777777777778 12.2710336538462  10.2666666666667 12.4981971153846  C 10.3555555555556 12.7253605769231  10.4444444444444 12.9244791666667  10.5333333333333 13.0955528846154  C 10.6222222222222 13.2666266025641  10.6666666666667 13.3886217948718  10.6666666666667 13.4615384615385  C 10.6666666666667 13.6073717948718  10.6138888888889 13.7335737179487  10.5083333333333 13.8401442307692  C 10.4027777777778 13.9467147435897  10.2777777777778 14  10.1333333333333 14  L 5.86666666666667 14  C 5.72222222222222 14  5.59722222222222 13.9467147435897  5.49166666666667 13.8401442307692  C 5.38611111111111 13.7335737179487  5.33333333333333 13.6073717948718  5.33333333333333 13.4615384615385  C 5.33333333333333 13.3830128205128  5.37777777777778 13.2596153846154  5.46666666666667 13.0913461538462  C 5.55555555555556 12.9230769230769  5.64444444444444 12.7267628205128  5.73333333333333 12.5024038461538  C 5.82222222222222 12.2780448717949  5.86666666666667 12.0592948717949  5.86666666666667 11.8461538461538  L 1.33333333333333 11.8461538461538  C 0.966666666666667 11.8461538461538  0.652777777777778 11.7143429487179  0.391666666666667 11.4507211538462  C 0.130555555555556 11.1870993589744  0 10.8701923076923  0 10.5  L 0 1.34615384615385  C 0 0.975961538461538  0.130555555555556 0.659054487179487  0.391666666666667 0.395432692307692  C 0.652777777777778 0.131810897435897  0.966666666666667 0  1.33333333333333 0  L 14.6666666666667 0  C 15.0333333333333 0  15.3472222222222 0.131810897435897  15.6083333333333 0.395432692307692  Z " fill-rule="nonzero" fill="#52c41a" stroke="none" transform="matrix(1 0 0 1 1712 27 )" />
  </g>
</svg>