<?xml version="1.0" encoding="utf-8"?>
<svg version="1.1" xmlns:xlink="http://www.w3.org/1999/xlink" width="22px" height="16px" xmlns="http://www.w3.org/2000/svg">
  <g transform="matrix(1 0 0 1 -21 -95 )">
    <path d="M 4.25390625 11.2102272727273  C 4.56082589285714 10.9261363636364  4.71428571428571 10.5833333333333  4.71428571428571 10.1818181818182  C 4.71428571428571 9.78030303030303  4.56082589285714 9.4375  4.25390625 9.15340909090909  C 3.94698660714286 8.86931818181818  3.57663690476191 8.72727272727273  3.14285714285714 8.72727272727273  C 2.70907738095238 8.72727272727273  2.33872767857143 8.86931818181818  2.03180803571429 9.15340909090909  C 1.72488839285714 9.4375  1.57142857142857 9.78030303030303  1.57142857142857 10.1818181818182  C 1.57142857142857 10.5833333333333  1.72488839285714 10.9261363636364  2.03180803571429 11.2102272727273  C 2.33872767857143 11.4943181818182  2.70907738095238 11.6363636363636  3.14285714285714 11.6363636363636  C 3.57663690476191 11.6363636363636  3.94698660714286 11.4943181818182  4.25390625 11.2102272727273  Z M 6.61104910714286 6.11931818181818  C 6.91796875 5.83522727272727  7.07142857142857 5.49242424242424  7.07142857142857 5.09090909090909  C 7.07142857142857 4.68939393939394  6.91796875 4.34659090909091  6.61104910714286 4.0625  C 6.30412946428571 3.77840909090909  5.93377976190476 3.63636363636364  5.5 3.63636363636364  C 5.06622023809524 3.63636363636364  4.69587053571429 3.77840909090909  4.38895089285714 4.0625  C 4.08203125 4.34659090909091  3.92857142857143 4.68939393939394  3.92857142857143 5.09090909090909  C 3.92857142857143 5.49242424242424  4.08203125 5.83522727272727  4.38895089285714 6.11931818181818  C 4.69587053571429 6.40340909090909  5.06622023809524 6.54545454545455  5.5 6.54545454545455  C 5.93377976190476 6.54545454545455  6.30412946428571 6.40340909090909  6.61104910714286 6.11931818181818  Z M 13.2098214285714 11.5909090909091  C 13.0297619047619 11.1590909090909  12.735119047619 10.8143939393939  12.3258928571429 10.5568181818182  L 13.5658482142857 6.21590909090909  C 13.6149553571429 6.01893939393939  13.5842633928571 5.83522727272727  13.4737723214286 5.66477272727273  C 13.36328125 5.49431818181818  13.2057291666667 5.38257575757576  13.0011160714286 5.32954545454546  C 12.7965029761905 5.27651515151515  12.6000744047619 5.30113636363636  12.4118303571429 5.40340909090909  C 12.2235863095238 5.50568181818182  12.100818452381 5.65530303030303  12.0435267857143 5.85227272727273  L 10.8035714285714 10.1931818181818  C 10.3125 10.2310606060606  9.87462797619048 10.3958333333333  9.48995535714286 10.6875  C 9.10528273809524 10.9791666666667  8.84747023809524 11.3522727272727  8.71651785714286 11.8068181818182  C 8.55282738095238 12.3901515151515  8.63467261904762 12.9431818181818  8.96205357142857 13.4659090909091  C 9.28943452380952 13.9886363636364  9.76822916666667 14.3257575757576  10.3984375 14.4772727272727  C 11.0286458333333 14.6287878787879  11.6261160714286 14.5530303030303  12.1908482142857 14.25  C 12.7555803571429 13.9469696969697  13.1197916666667 13.5037878787879  13.2834821428571 12.9204545454545  C 13.4144345238095 12.4659090909091  13.389880952381 12.0227272727273  13.2098214285714 11.5909090909091  Z M 19.9681919642857 11.2102272727273  C 20.2751116071429 10.9261363636364  20.4285714285714 10.5833333333333  20.4285714285714 10.1818181818182  C 20.4285714285714 9.78030303030303  20.2751116071429 9.4375  19.9681919642857 9.15340909090909  C 19.6612723214286 8.86931818181818  19.2909226190476 8.72727272727273  18.8571428571429 8.72727272727273  C 18.4233630952381 8.72727272727273  18.0530133928571 8.86931818181818  17.74609375 9.15340909090909  C 17.4391741071429 9.4375  17.2857142857143 9.78030303030303  17.2857142857143 10.1818181818182  C 17.2857142857143 10.5833333333333  17.4391741071429 10.9261363636364  17.74609375 11.2102272727273  C 18.0530133928571 11.4943181818182  18.4233630952381 11.6363636363636  18.8571428571429 11.6363636363636  C 19.2909226190476 11.6363636363636  19.6612723214286 11.4943181818182  19.9681919642857 11.2102272727273  Z M 12.1110491071429 3.9375  C 12.41796875 3.65340909090909  12.5714285714286 3.31060606060606  12.5714285714286 2.90909090909091  C 12.5714285714286 2.50757575757576  12.41796875 2.16477272727273  12.1110491071429 1.88068181818182  C 11.8041294642857 1.59659090909091  11.4337797619048 1.45454545454546  11 1.45454545454546  C 10.5662202380952 1.45454545454546  10.1958705357143 1.59659090909091  9.88895089285714 1.88068181818182  C 9.58203125 2.16477272727273  9.42857142857143 2.50757575757576  9.42857142857143 2.90909090909091  C 9.42857142857143 3.31060606060606  9.58203125 3.65340909090909  9.88895089285714 3.9375  C 10.1958705357143 4.22159090909091  10.5662202380952 4.36363636363636  11 4.36363636363636  C 11.4337797619048 4.36363636363636  11.8041294642857 4.22159090909091  12.1110491071429 3.9375  Z M 17.6110491071429 6.11931818181818  C 17.91796875 5.83522727272727  18.0714285714286 5.49242424242424  18.0714285714286 5.09090909090909  C 18.0714285714286 4.68939393939394  17.91796875 4.34659090909091  17.6110491071429 4.0625  C 17.3041294642857 3.77840909090909  16.9337797619048 3.63636363636364  16.5 3.63636363636364  C 16.0662202380952 3.63636363636364  15.6958705357143 3.77840909090909  15.3889508928571 4.0625  C 15.08203125 4.34659090909091  14.9285714285714 4.68939393939394  14.9285714285714 5.09090909090909  C 14.9285714285714 5.49242424242424  15.08203125 5.83522727272727  15.3889508928571 6.11931818181818  C 15.6958705357143 6.40340909090909  16.0662202380952 6.54545454545455  16.5 6.54545454545455  C 16.9337797619048 6.54545454545455  17.3041294642857 6.40340909090909  17.6110491071429 6.11931818181818  Z M 21.1283482142857 6.22727272727273  C 21.7094494047619 7.48484848484848  22 8.8030303030303  22 10.1818181818182  C 22 12.1590909090909  21.4229910714286 13.9886363636364  20.2689732142857 15.6704545454545  C 20.1134672619048 15.8901515151515  19.8924851190476 16  19.6060267857143 16  L 2.39397321428571 16  C 2.10751488095238 16  1.88653273809524 15.8901515151515  1.73102678571429 15.6704545454545  C 0.577008928571429 13.9962121212121  0 12.1666666666667  0 10.1818181818182  C 0 8.8030303030303  0.290550595238095 7.48484848484848  0.871651785714286 6.22727272727273  C 1.45275297619048 4.96969696969697  2.234375 3.88636363636364  3.21651785714286 2.97727272727273  C 4.19866071428571 2.06818181818182  5.36904761904762 1.34469696969697  6.72767857142857 0.806818181818182  C 8.08630952380952 0.268939393939393  9.51041666666667 0  11 0  C 12.4895833333333 0  13.9136904761905 0.268939393939393  15.2723214285714 0.806818181818182  C 16.6309523809524 1.34469696969697  17.8013392857143 2.06818181818182  18.7834821428571 2.97727272727273  C 19.765625 3.88636363636364  20.5472470238095 4.96969696969697  21.1283482142857 6.22727272727273  Z " fill-rule="nonzero" fill="#5b92ff" stroke="none" transform="matrix(1 0 0 1 21 95 )" />
  </g>
</svg>