<?xml version="1.0" encoding="utf-8"?>
<svg version="1.1" xmlns:xlink="http://www.w3.org/1999/xlink" width="20px" height="17px" xmlns="http://www.w3.org/2000/svg">
  <g transform="matrix(1 0 0 1 -22 -142 )">
    <path d="M 19.140625 0.0568561872909699  C 19.3489583333333 -0.0252694165737648  19.5442708333333 -0.00631735414344026  19.7265625 0.11371237458194  C 19.9088541666667 0.240059457450762  20 0.407469342251951  20 0.615942028985508  L 20 13.9581939799331  C 20 14.0845410628019  19.9641927083333 14.1982534373839  19.892578125 14.2993311036789  C 19.8209635416667 14.400408769974  19.7265625 14.4730583426236  19.609375 14.5172798216276  L 13.359375 16.943143812709  C 13.203125 17.0126347082869  13.046875 17.0126347082869  12.890625 16.943143812709  L 6.875 14.6120401337793  L 0.859375 16.943143812709  C 0.794270833333333 16.9747305834262  0.716145833333333 16.9905239687848  0.625 16.9905239687848  C 0.501302083333333 16.9905239687848  0.384114583333333 16.9557785209959  0.2734375 16.8862876254181  C 0.0911458333333333 16.7599405425492  0 16.5925306577481  0 16.3840579710145  L 0 3.04180602006689  C 0 2.91545893719807  0.0358072916666667 2.80174656261613  0.107421875 2.70066889632107  C 0.179036458333333 2.59959123002601  0.2734375 2.52694165737644  0.390625 2.48272017837235  L 6.640625 0.0568561872909699  C 6.796875 -0.0126347082868843  6.953125 -0.0126347082868843  7.109375 0.0568561872909699  L 13.125 2.38795986622074  L 19.140625 0.0568561872909699  Z M 12.8125 3.57246376811594  L 7.1875 1.39297658862876  L 7.1875 13.4275362318841  L 12.8125 15.6070234113712  L 12.8125 3.57246376811594  Z M 6.5625 1.39297658862876  L 1.25 3.44927536231884  L 1.25 15.4838350055741  L 6.5625 13.4275362318841  L 6.5625 1.39297658862876  Z M 13.4375 15.6070234113712  L 18.75 13.5507246376812  L 18.75 1.51616499442586  L 13.4375 3.57246376811594  L 13.4375 15.6070234113712  Z " fill-rule="nonzero" fill="#5b92ff" stroke="none" transform="matrix(1 0 0 1 22 142 )" />
  </g>
</svg>