<?xml version="1.0" encoding="utf-8"?>
<svg version="1.1" xmlns:xlink="http://www.w3.org/1999/xlink" width="274px" height="195px" xmlns="http://www.w3.org/2000/svg">
  <g transform="matrix(1 0 0 1 -17 -114 )">
    <path d="M 18 116  A 1 1 0 0 1 19 115 L 289 115  A 1 1 0 0 1 290 116 L 290 307  A 1 1 0 0 1 289 308 L 19 308  A 1 1 0 0 1 18 307 L 18 116  Z " fill-rule="nonzero" fill="#212d66" stroke="none" />
    <path d="M 17.5 116  A 1.5 1.5 0 0 1 19 114.5 L 289 114.5  A 1.5 1.5 0 0 1 290.5 116 L 290.5 307  A 1.5 1.5 0 0 1 289 308.5 L 19 308.5  A 1.5 1.5 0 0 1 17.5 307 L 17.5 116  Z " stroke-width="1" stroke="#000000" fill="none" stroke-opacity="0.149019607843137" />
  </g>
</svg>