<?xml version="1.0" encoding="utf-8"?>
<svg version="1.1" xmlns:xlink="http://www.w3.org/1999/xlink" width="17px" height="13px" xmlns="http://www.w3.org/2000/svg">
  <g transform="matrix(1 0 0 1 -24 -242 )">
    <path d="M 3.1875 6.5  L 5.3125 6.5  L 5.3125 10.8333333333333  L 3.1875 10.8333333333333  L 3.1875 6.5  Z M 6.375 2.16666666666667  L 8.5 2.16666666666667  L 8.5 10.8333333333333  L 6.375 10.8333333333333  L 6.375 2.16666666666667  Z M 1 12  L 17 12  L 17 13  L 0 13  L 0 0  L 1 0  L 1 12  Z M 9.5625 4.33333333333333  L 11.6875 4.33333333333333  L 11.6875 10.8333333333333  L 9.5625 10.8333333333333  L 9.5625 4.33333333333333  Z M 12.75 1.08333333333333  L 14.875 1.08333333333333  L 14.875 10.8333333333333  L 12.75 10.8333333333333  L 12.75 1.08333333333333  Z " fill-rule="nonzero" fill="#5b92ff" stroke="none" transform="matrix(1 0 0 1 24 242 )" />
  </g>
</svg>