<?xml version="1.0" encoding="utf-8"?>
<svg version="1.1" xmlns:xlink="http://www.w3.org/1999/xlink" width="16px" height="16px" xmlns="http://www.w3.org/2000/svg">
  <g>
    <path d="M 11 0  L 15.3333333333333 0  C 15.5138888888889 0  15.6701388888889 0.0659722222222214  15.8020833333333 0.197916666666666  C 15.9340277777778 0.329861111111109  16 0.486111111111109  16 0.666666666666666  L 16 5  C 16 5.09722222222222  15.96875 5.17708333333333  15.90625 5.23958333333333  C 15.84375 5.30208333333333  15.7638888888889 5.33333333333333  15.6666666666667 5.33333333333333  L 15 5.33333333333333  C 14.9027777777778 5.33333333333333  14.8229166666667 5.30208333333333  14.7604166666667 5.23958333333333  C 14.6979166666667 5.17708333333333  14.6666666666667 5.09722222222222  14.6666666666667 5  L 14.6666666666667 2.27083333333333  L 10.6875 6.26041666666667  C 11.5625 7.34375  12 8.59027777777778  12 10  C 12 10.8125  11.8420138888889 11.5885416666667  11.5260416666667 12.328125  C 11.2100694444444 13.0677083333333  10.7829861111111 13.7065972222222  10.2447916666667 14.2447916666667  C 9.70659722222222 14.7829861111111  9.06770833333333 15.2100694444444  8.328125 15.5260416666667  C 7.58854166666667 15.8420138888889  6.8125 16  6 16  C 5.1875 16  4.41145833333333 15.8420138888889  3.671875 15.5260416666667  C 2.93229166666667 15.2100694444444  2.29340277777778 14.7829861111111  1.75520833333333 14.2447916666667  C 1.21701388888889 13.7065972222222  0.789930555555556 13.0677083333333  0.473958333333333 12.328125  C 0.157986111111111 11.5885416666667  0 10.8125  0 10  C 0 9.1875  0.157986111111111 8.41145833333333  0.473958333333333 7.671875  C 0.789930555555556 6.93229166666667  1.21701388888889 6.29340277777778  1.75520833333333 5.75520833333333  C 2.29340277777778 5.21701388888889  2.93229166666667 4.78993055555556  3.671875 4.47395833333333  C 4.41145833333333 4.15798611111111  5.1875 4  6 4  C 7.40972222222222 4  8.65625 4.4375  9.73958333333333 5.3125  L 13.71875 1.33333333333333  L 11 1.33333333333333  C 10.9027777777778 1.33333333333333  10.8229166666667 1.30208333333333  10.7604166666667 1.23958333333333  C 10.6979166666667 1.17708333333333  10.6666666666667 1.09722222222222  10.6666666666667 1  L 10.6666666666667 0.333333333333334  C 10.6666666666667 0.236111111111109  10.6979166666667 0.15625  10.7604166666667 0.09375  C 10.8229166666667 0.03125  10.9027777777778 0  11 0  Z M 2.703125 13.296875  C 3.61631944444444 14.2100694444444  4.71527777777778 14.6666666666667  6 14.6666666666667  C 7.28472222222222 14.6666666666667  8.38368055555556 14.2100694444444  9.296875 13.296875  C 10.2100694444444 12.3836805555556  10.6666666666667 11.2847222222222  10.6666666666667 10  C 10.6666666666667 8.71527777777778  10.2100694444444 7.61631944444444  9.296875 6.703125  C 8.38368055555556 5.78993055555556  7.28472222222222 5.33333333333333  6 5.33333333333333  C 4.71527777777778 5.33333333333333  3.61631944444444 5.78993055555556  2.703125 6.703125  C 1.78993055555556 7.61631944444444  1.33333333333333 8.71527777777778  1.33333333333333 10  C 1.33333333333333 11.2847222222222  1.78993055555556 12.3836805555556  2.703125 13.296875  Z " fill-rule="nonzero" fill="#00c2fd" stroke="none" />
  </g>
</svg>