<?xml version="1.0" encoding="utf-8"?>
<svg version="1.1" xmlns:xlink="http://www.w3.org/1999/xlink" width="12px" height="17px" xmlns="http://www.w3.org/2000/svg">
  <g>
    <path d="M 11.09375 2.56138392857143  C 11.6979166666667 3.44047619047619  12 4.40811011904762  12 5.46428571428571  C 12 6.86197916666667  11.4878472222222 8.07784598214286  10.4635416666667 9.11188616071429  C 9.43923611111111 10.1459263392857  8.17361111111111 10.7388392857143  6.66666666666667 10.890625  L 6.66666666666667 13.3571428571429  L 9 13.3571428571429  C 9.09722222222222 13.3571428571429  9.17708333333333 13.3856026785714  9.23958333333333 13.4425223214286  C 9.30208333333333 13.4994419642857  9.33333333333333 13.5721726190476  9.33333333333333 13.6607142857143  L 9.33333333333333 14.2678571428571  C 9.33333333333333 14.3563988095238  9.30208333333333 14.4291294642857  9.23958333333333 14.4860491071429  C 9.17708333333333 14.54296875  9.09722222222222 14.5714285714286  9 14.5714285714286  L 6.66666666666667 14.5714285714286  L 6.66666666666667 16.6964285714286  C 6.66666666666667 16.7849702380952  6.63541666666667 16.8577008928571  6.57291666666667 16.9146205357143  C 6.51041666666667 16.9715401785714  6.43055555555556 17  6.33333333333333 17  L 5.66666666666667 17  C 5.56944444444445 17  5.48958333333333 16.9715401785714  5.42708333333333 16.9146205357143  C 5.36458333333333 16.8577008928571  5.33333333333333 16.7849702380952  5.33333333333333 16.6964285714286  L 5.33333333333333 14.5714285714286  L 3 14.5714285714286  C 2.90277777777778 14.5714285714286  2.82291666666667 14.54296875  2.76041666666667 14.4860491071429  C 2.69791666666667 14.4291294642857  2.66666666666667 14.3563988095238  2.66666666666667 14.2678571428571  L 2.66666666666667 13.6607142857143  C 2.66666666666667 13.5721726190476  2.69791666666667 13.4994419642857  2.76041666666667 13.4425223214286  C 2.82291666666667 13.3856026785714  2.90277777777778 13.3571428571429  3 13.3571428571429  L 5.33333333333333 13.3571428571429  L 5.33333333333333 10.890625  C 4.29166666666667 10.7894345238095  3.34895833333333 10.4637276785714  2.50520833333333 9.91350446428571  C 1.66145833333333 9.36328125  1.015625 8.65494791666667  0.567708333333333 7.78850446428571  C 0.119791666666667 6.92206101190476  -0.0625 5.99869791666667  0.0208333333333333 5.01841517857143  C 0.0972222222222222 4.17094494047619  0.376736111111111 3.38355654761905  0.859375 2.65625  C 1.34201388888889 1.92894345238095  1.97395833333333 1.3344494047619  2.75520833333333 0.872767857142857  C 3.53645833333333 0.411086309523809  4.38888888888889 0.1328125  5.3125 0.0379464285714294  C 6.49305555555556 -0.0822172619047659  7.60069444444444 0.0885416666666635  8.63541666666667 0.550223214285714  C 9.67013888888889 1.01190476190476  10.4895833333333 1.68229166666667  11.09375 2.56138392857143  Z M 2.703125 2.46177455357143  C 1.78993055555556 3.2934337797619  1.33333333333333 4.29427083333333  1.33333333333333 5.46428571428571  C 1.33333333333333 6.63430059523809  1.78993055555556 7.63513764880952  2.703125 8.466796875  C 3.61631944444444 9.29845610119048  4.71527777777778 9.71428571428571  6 9.71428571428571  C 7.28472222222222 9.71428571428571  8.38368055555556 9.29845610119048  9.296875 8.466796875  C 10.2100694444444 7.63513764880952  10.6666666666667 6.63430059523809  10.6666666666667 5.46428571428571  C 10.6666666666667 4.29427083333333  10.2100694444444 3.2934337797619  9.296875 2.46177455357143  C 8.38368055555556 1.63011532738095  7.28472222222222 1.21428571428571  6 1.21428571428571  C 4.71527777777778 1.21428571428571  3.61631944444444 1.63011532738095  2.703125 2.46177455357143  Z " fill-rule="nonzero" fill="#ff60c5" stroke="none" />
  </g>
</svg>