<?xml version="1.0" encoding="utf-8"?>
<svg version="1.1" xmlns:xlink="http://www.w3.org/1999/xlink" width="11px" height="17px" xmlns="http://www.w3.org/2000/svg">
  <g transform="matrix(1 0 0 1 -27 -388 )">
    <path d="M 7.50341796875 3.96223958333333  C 7.77197265625 4.24262152777778  7.90625 4.57465277777778  7.90625 4.95833333333333  C 7.90625 5.05425347222222  7.87223307291667 5.13726128472222  7.80419921875 5.20735677083333  C 7.73616536458333 5.27745225694444  7.65559895833333 5.3125  7.5625 5.3125  C 7.46940104166667 5.3125  7.38883463541667 5.27745225694444  7.32080078125 5.20735677083333  C 7.25276692708333 5.13726128472222  7.21875 5.05425347222222  7.21875 4.95833333333333  C 7.21875 4.61892361111111  7.025390625 4.35698784722222  6.638671875 4.17252604166667  C 6.251953125 3.98806423611111  5.87239583333333 3.89583333333333  5.5 3.89583333333333  C 5.40690104166667 3.89583333333333  5.32633463541667 3.86078559027778  5.25830078125 3.79069010416667  C 5.19026692708333 3.72059461805555  5.15625 3.63758680555555  5.15625 3.54166666666667  C 5.15625 3.44574652777778  5.19026692708333 3.36273871527778  5.25830078125 3.29264322916667  C 5.32633463541667 3.22254774305555  5.40690104166667 3.1875  5.5 3.1875  C 5.85807291666667 3.1875  6.21435546875 3.24652777777778  6.56884765625 3.36458333333333  C 6.92333984375 3.48263888888889  7.23486328125 3.68185763888889  7.50341796875 3.96223958333333  Z M 8.89453125 6.95052083333333  C 9.38151041666667 6.36762152777778  9.625 5.70355902777778  9.625 4.95833333333333  C 9.625 4.42708333333333  9.50146484375 3.93272569444444  9.25439453125 3.47526041666667  C 9.00732421875 3.01779513888889  8.68505859375 2.64333767361111  8.28759765625 2.35188802083333  C 7.89013671875 2.06043836805555  7.44970703125 1.83170572916667  6.96630859375 1.66569010416667  C 6.48291015625 1.49967447916667  5.994140625 1.41666666666667  5.5 1.41666666666667  C 5.005859375 1.41666666666667  4.51708984375 1.49967447916667  4.03369140625 1.66569010416667  C 3.55029296875 1.83170572916667  3.10986328125 2.06043836805555  2.71240234375 2.35188802083333  C 2.31494140625 2.64333767361111  1.99267578125 3.01779513888889  1.74560546875 3.47526041666667  C 1.49853515625 3.93272569444444  1.375 4.42708333333333  1.375 4.95833333333333  C 1.375 5.70355902777778  1.61848958333333 6.36762152777778  2.10546875 6.95052083333333  C 2.17708333333333 7.03168402777778  2.28629557291667 7.15342881944444  2.43310546875 7.31575520833333  C 2.57991536458333 7.47808159722222  2.68912760416667 7.59982638888889  2.7607421875 7.68098958333333  C 3.67740885416667 8.80989583333333  4.18229166666667 9.90928819444444  4.275390625 10.9791666666667  L 6.724609375 10.9791666666667  C 6.81770833333333 9.90928819444444  7.32259114583333 8.80989583333333  8.2392578125 7.68098958333333  C 8.31087239583333 7.59982638888889  8.42008463541667 7.47808159722222  8.56689453125 7.31575520833333  C 8.71370442708333 7.15342881944444  8.82291666666667 7.03168402777778  8.89453125 6.95052083333333  Z M 10.52197265625 2.91634114583333  C 10.8406575520833 3.54720052083333  11 4.22786458333333  11 4.95833333333333  C 11 6.10199652777778  10.6311848958333 7.09071180555556  9.8935546875 7.92447916666667  C 9.5712890625 8.28602430555556  9.30452473958333 8.60698784722222  9.09326171875 8.88736979166667  C 8.88199869791667 9.16775173611111  8.6689453125 9.52007378472222  8.4541015625 9.9443359375  C 8.2392578125 10.3685980902778  8.11751302083333 10.7651909722222  8.0888671875 11.1341145833333  C 8.42545572916667 11.3407118055556  8.59375 11.6432291666667  8.59375 12.0416666666667  C 8.59375 12.3146701388889  8.50423177083333 12.55078125  8.3251953125 12.75  C 8.50423177083333 12.94921875  8.59375 13.1853298611111  8.59375 13.4583333333333  C 8.59375 13.8420138888889  8.4326171875 14.1408420138889  8.1103515625 14.3548177083333  C 8.20345052083333 14.5245225694444  8.25 14.6979166666667  8.25 14.875  C 8.25 15.2144097222222  8.13720703125 15.4763454861111  7.91162109375 15.6608072916667  C 7.68603515625 15.8452690972222  7.40852864583333 15.9375  7.0791015625 15.9375  C 6.93587239583333 16.2621527777778  6.72102864583333 16.5203993055556  6.4345703125 16.7122395833333  C 6.14811197916667 16.9040798611111  5.83658854166667 17  5.5 17  C 5.16341145833333 17  4.85188802083333 16.9040798611111  4.5654296875 16.7122395833333  C 4.27897135416667 16.5203993055556  4.06412760416667 16.2621527777778  3.9208984375 15.9375  C 3.59147135416667 15.9375  3.31396484375 15.8452690972222  3.08837890625 15.6608072916667  C 2.86279296875 15.4763454861111  2.75 15.2144097222222  2.75 14.875  C 2.75 14.6979166666667  2.79654947916667 14.5245225694444  2.8896484375 14.3548177083333  C 2.5673828125 14.1408420138889  2.40625 13.8420138888889  2.40625 13.4583333333333  C 2.40625 13.1853298611111  2.49576822916667 12.94921875  2.6748046875 12.75  C 2.49576822916667 12.55078125  2.40625 12.3146701388889  2.40625 12.0416666666667  C 2.40625 11.6432291666667  2.57454427083333 11.3407118055556  2.9111328125 11.1341145833333  C 2.88248697916667 10.7651909722222  2.7607421875 10.3685980902778  2.5458984375 9.9443359375  C 2.3310546875 9.52007378472222  2.11800130208333 9.16775173611111  1.90673828125 8.88736979166667  C 1.69547526041667 8.60698784722222  1.4287109375 8.28602430555556  1.1064453125 7.92447916666667  C 0.368815104166667 7.09071180555556  0 6.10199652777778  0 4.95833333333333  C 0 4.22786458333333  0.159342447916667 3.54720052083333  0.47802734375 2.91634114583333  C 0.796712239583333 2.28548177083333  1.21565755208333 1.76161024305555  1.73486328125 1.3447265625  C 2.25406901041667 0.927842881944443  2.84130859375 0.599500868055553  3.49658203125 0.359700520833333  C 4.15185546875 0.11990017361111  4.81966145833333 0  5.5 0  C 6.18033854166667 0  6.84814453125 0.11990017361111  7.50341796875 0.359700520833333  C 8.15869140625 0.599500868055553  8.74593098958333 0.927842881944443  9.26513671875 1.3447265625  C 9.78434244791667 1.76161024305555  10.2032877604167 2.28548177083333  10.52197265625 2.91634114583333  Z " fill-rule="nonzero" fill="#5b92ff" stroke="none" transform="matrix(1 0 0 1 27 388 )" />
  </g>
</svg>