<?xml version="1.0" encoding="utf-8"?>
<svg version="1.1" xmlns:xlink="http://www.w3.org/1999/xlink" width="24px" height="24px" xmlns="http://www.w3.org/2000/svg">
  <g transform="matrix(1 0 0 1 -1801 -21 )">
    <path d="M 7.33928571428572 0.950892857142857  C 8.82142857142857 0.316964285714286  10.375 0  12 0  C 13.625 0  15.1785714285714 0.316964285714286  16.6607142857143 0.950892857142857  C 18.1428571428571 1.58482142857143  19.4196428571429 2.4375  20.4910714285714 3.50892857142857  C 21.5625 4.58035714285714  22.4151785714286 5.85714285714286  23.0491071428571 7.33928571428571  C 23.6830357142857 8.82142857142857  24 10.375  24 12  C 24 13.6160714285714  23.6852678571429 15.1651785714286  23.0558035714286 16.6473214285714  C 22.4263392857143 18.1294642857143  21.5758928571429 19.40625  20.5044642857143 20.4776785714286  C 19.4330357142857 21.5491071428571  18.15625 22.4040178571429  16.6741071428571 23.0424107142857  C 15.1919642857143 23.6808035714286  13.6339285714286 24  12 24  C 10.3660714285714 24  8.80803571428572 23.6830357142857  7.32589285714286 23.0491071428571  C 5.84375 22.4151785714286  4.56919642857143 21.5602678571429  3.50223214285714 20.484375  C 2.43526785714286 19.4084821428571  1.58482142857143 18.1316964285714  0.950892857142857 16.6540178571429  C 0.316964285714286 15.1763392857143  0 13.625  0 12  C 0 10.375  0.316964285714286 8.82142857142857  0.950892857142857 7.33928571428571  C 1.58482142857143 5.85714285714286  2.4375 4.58035714285714  3.50892857142857 3.50892857142857  C 4.58035714285714 2.4375  5.85714285714286 1.58482142857143  7.33928571428572 0.950892857142857  Z M 16.1919642857143 13.7142857142857  C 18.3348214285714 13.7142857142857  19.7008928571429 15.1741071428571  20.2901785714286 18.09375  C 21.6205357142857 16.2633928571429  22.2857142857143 14.2321428571429  22.2857142857143 12  C 22.2857142857143 10.6071428571429  22.0133928571429 9.27678571428571  21.46875 8.00892857142857  C 20.9241071428571 6.74107142857143  20.1919642857143 5.64732142857143  19.2723214285714 4.72767857142857  C 18.3526785714286 3.80803571428571  17.2589285714286 3.07589285714286  15.9910714285714 2.53125  C 14.7232142857143 1.98660714285714  13.3928571428571 1.71428571428571  12 1.71428571428571  C 10.6071428571429 1.71428571428571  9.27678571428572 1.98660714285714  8.00892857142857 2.53125  C 6.74107142857143 3.07589285714286  5.64732142857143 3.80803571428571  4.72767857142857 4.72767857142857  C 3.80803571428572 5.64732142857143  3.07589285714286 6.74107142857143  2.53125 8.00892857142857  C 1.98660714285714 9.27678571428571  1.71428571428571 10.6071428571429  1.71428571428571 12  C 1.71428571428571 14.2321428571429  2.37946428571429 16.2633928571429  3.70982142857143 18.09375  C 4.29910714285714 15.1741071428571  5.66517857142857 13.7142857142857  7.80803571428572 13.7142857142857  C 8.97767857142857 14.8571428571429  10.375 15.4285714285714  12 15.4285714285714  C 13.625 15.4285714285714  15.0223214285714 14.8571428571429  16.1919642857143 13.7142857142857  Z M 15.6361607142857 13.0647321428571  C 16.640625 12.0602678571429  17.1428571428571 10.8482142857143  17.1428571428571 9.42857142857143  C 17.1428571428571 8.00892857142857  16.640625 6.796875  15.6361607142857 5.79241071428571  C 14.6316964285714 4.78794642857143  13.4196428571429 4.28571428571429  12 4.28571428571429  C 10.5803571428571 4.28571428571429  9.36830357142857 4.78794642857143  8.36383928571428 5.79241071428571  C 7.359375 6.796875  6.85714285714286 8.00892857142857  6.85714285714286 9.42857142857143  C 6.85714285714286 10.8482142857143  7.359375 12.0602678571429  8.36383928571428 13.0647321428571  C 9.36830357142857 14.0691964285714  10.5803571428571 14.5714285714286  12 14.5714285714286  C 13.4196428571429 14.5714285714286  14.6316964285714 14.0691964285714  15.6361607142857 13.0647321428571  Z " fill-rule="nonzero" fill="#82e58c" stroke="none" transform="matrix(1 0 0 1 1801 21 )" />
  </g>
</svg>