<?xml version="1.0" encoding="utf-8"?>
<svg version="1.1" xmlns:xlink="http://www.w3.org/1999/xlink" width="1362px" height="148px" xmlns="http://www.w3.org/2000/svg">
  <g transform="matrix(1 0 0 1 -397.5 -1333.5 )">
    <path d="M 1355.76461142876 0.0655737704919375  L 0.809148213646373 141.049180327869  L 103.791648132276 85.311475409836  L 212.65886233197 95.1475409836066  L 322.99725510193 49.2459016393443  L 420.095040739495 60.7213114754099  L 526.019897798657 49  L 629.002397717286 14.8196721311476  L 720.215469073787 14  L 821.72679042215 14.8196721311476  L 946.776968894772 95.1475409836066  L 1054.1730045242 61.5  L 1148.32843302123 61.5  L 1248.36857579933 32.8524590163934  L 1355.76461142876 0.0655737704919375  Z " fill-rule="nonzero" fill="#314695" stroke="none" transform="matrix(1 0 0 1 400 1336 )" />
    <path d="M 0.809148213646373 141.049180327869  L 103.791648132276 85.311475409836  L 212.65886233197 95.1475409836066  L 322.99725510193 49.2459016393443  L 420.095040739495 60.7213114754099  L 526.019897798657 49  L 629.002397717286 14.8196721311476  L 720.215469073787 14  L 821.72679042215 14.8196721311476  L 946.776968894772 95.1475409836066  L 1054.1730045242 61.5  L 1148.32843302123 61.5  L 1248.36857579933 32.8524590163934  L 1355.76461142876 0.0655737704919375  " stroke-width="5" stroke="#41f2e7" fill="none" transform="matrix(1 0 0 1 400 1336 )" />
  </g>
</svg>