<?xml version="1.0" encoding="utf-8"?>
<svg version="1.1" xmlns:xlink="http://www.w3.org/1999/xlink" width="17px" height="14px" xmlns="http://www.w3.org/2000/svg">
  <g transform="matrix(1 0 0 1 -24 -291 )">
    <path d="M 9.71428571428571 11.4545454545455  L 9.71428571428571 12.7272727272727  L 15.7857142857143 12.7272727272727  L 15.7857142857143 11.4545454545455  L 9.71428571428571 11.4545454545455  Z M 6.07142857142857 6.36363636363636  L 6.07142857142857 7.63636363636364  L 15.7857142857143 7.63636363636364  L 15.7857142857143 6.36363636363636  L 6.07142857142857 6.36363636363636  Z M 12.1428571428571 1.27272727272727  L 12.1428571428571 2.54545454545455  L 15.7857142857143 2.54545454545455  L 15.7857142857143 1.27272727272727  L 12.1428571428571 1.27272727272727  Z M 16.8197544642857 10.3707386363636  C 16.9399181547619 10.4966856060606  17 10.6458333333333  17 10.8181818181818  L 17 13.3636363636364  C 17 13.5359848484848  16.9399181547619 13.6851325757576  16.8197544642857 13.8110795454545  C 16.6995907738095 13.9370265151515  16.5572916666667 14  16.3928571428571 14  L 0.607142857142857 14  C 0.442708333333333 14  0.300409226190476 13.9370265151515  0.180245535714286 13.8110795454545  C 0.0600818452380952 13.6851325757576  0 13.5359848484848  0 13.3636363636364  L 0 10.8181818181818  C 0 10.6458333333333  0.0600818452380952 10.4966856060606  0.180245535714286 10.3707386363636  C 0.300409226190476 10.2447916666667  0.442708333333333 10.1818181818182  0.607142857142857 10  L 16.3928571428571 10  C 16.5572916666667 10.1818181818182  16.6995907738095 10.2447916666667  16.8197544642857 10.3707386363636  Z M 16.8197544642857 5.27982954545455  C 16.9399181547619 5.40577651515151  17 5.55492424242424  17 5.72727272727273  L 17 8.27272727272727  C 17 8.44507575757576  16.9399181547619 8.59422348484848  16.8197544642857 8.72017045454545  C 16.6995907738095 8.84611742424242  16.5572916666667 8.90909090909091  16.3928571428571 9  L 0.607142857142857 9  C 0.442708333333333 8.90909090909091  0.300409226190476 8.84611742424242  0.180245535714286 8.72017045454545  C 0.0600818452380952 8.59422348484848  0 8.44507575757576  0 8.27272727272727  L 0 5.72727272727273  C 0 5.55492424242424  0.0600818452380952 5.40577651515151  0.180245535714286 5.27982954545455  C 0.300409226190476 5.15388257575757  0.442708333333333 5.09090909090909  0.607142857142857 5  L 16.3928571428571 5  C 16.5572916666667 5.09090909090909  16.6995907738095 5.15388257575757  16.8197544642857 5.27982954545455  Z M 16.8197544642857 0.188920454545455  C 16.9399181547619 0.314867424242422  17 0.464015151515151  17 0.636363636363636  L 17 3.18181818181818  C 17 3.35416666666667  16.9399181547619 3.50331439393939  16.8197544642857 3.62926136363636  C 16.6995907738095 3.75520833333333  16.5572916666667 3.81818181818182  16.3928571428571 4  L 0.607142857142857 4  C 0.442708333333333 3.81818181818182  0.300409226190476 3.75520833333333  0.180245535714286 3.62926136363636  C 0.0600818452380952 3.50331439393939  0 3.35416666666667  0 3.18181818181818  L 0 0.636363636363636  C 0 0.464015151515151  0.0600818452380952 0.314867424242422  0.180245535714286 0.188920454545455  C 0.300409226190476 0.0629734848484835  0.442708333333333 0  0.607142857142857 0  L 16.3928571428571 0  C 16.5572916666667 0  16.6995907738095 0.0629734848484835  16.8197544642857 0.188920454545455  Z " fill-rule="nonzero" fill="#5b92ff" stroke="none" transform="matrix(1 0 0 1 24 291 )" />
  </g>
</svg>