<?xml version="1.0" encoding="utf-8"?>
<svg version="1.1" xmlns:xlink="http://www.w3.org/1999/xlink" width="17px" height="17px" xmlns="http://www.w3.org/2000/svg">
  <g transform="matrix(1 0 0 1 -24 -337 )">
    <path d="M 10.42578125 10.42578125  C 11.3214142628205 9.53014823717949  11.7692307692308 8.45232371794872  11.7692307692308 7.19230769230769  C 11.7692307692308 5.93229166666667  11.3214142628205 4.8544671474359  10.42578125 3.95883413461538  C 9.53014823717949 3.06320112179487  8.45232371794872 2.61538461538462  7.19230769230769 2.61538461538462  C 5.93229166666667 2.61538461538462  4.8544671474359 3.06320112179487  3.95883413461538 3.95883413461538  C 3.06320112179487 4.8544671474359  2.61538461538462 5.93229166666667  2.61538461538462 7.19230769230769  C 2.61538461538462 8.45232371794872  3.06320112179487 9.53014823717949  3.95883413461538 10.42578125  C 4.8544671474359 11.3214142628205  5.93229166666667 11.7692307692308  7.19230769230769 11.7692307692308  C 8.45232371794872 11.7692307692308  9.53014823717949 11.3214142628205  10.42578125 10.42578125  Z M 16.6219951923077 14.7728365384615  C 16.8739983974359 15.0248397435897  17 15.3313301282051  17 15.6923076923077  C 17 16.0464743589744  16.8705929487179 16.3529647435897  16.6117788461538 16.6117788461538  C 16.3529647435897 16.8705929487179  16.0464743589744 17  15.6923076923077 17  C 15.3245192307692 17  15.0180288461538 16.8705929487179  14.7728365384615 16.6117788461538  L 11.2686298076923 13.1177884615385  C 10.0494791666667 13.9623397435897  8.69070512820513 14.3846153846154  7.19230769230769 14.3846153846154  C 6.21834935897436 14.3846153846154  5.28695913461538 14.1956129807692  4.39813701923077 13.8176081730769  C 3.50931490384615 13.4396033653846  2.74308894230769 12.9287860576923  2.09945913461538 12.28515625  C 1.45582932692308 11.6415264423077  0.945012019230769 10.8753004807692  0.567007211538462 9.98647836538462  C 0.189002403846154 9.09765625  0 8.16626602564102  0 7.19230769230769  C 0 6.21834935897436  0.189002403846154 5.28695913461538  0.567007211538462 4.39813701923077  C 0.945012019230769 3.50931490384615  1.45582932692308 2.74308894230769  2.09945913461538 2.09945913461538  C 2.74308894230769 1.45582932692308  3.50931490384615 0.945012019230769  4.39813701923077 0.567007211538462  C 5.28695913461538 0.189002403846153  6.21834935897436 0  7.19230769230769 0  C 8.16626602564103 0  9.09765625 0.189002403846153  9.98647836538462 0.567007211538462  C 10.8753004807692 0.945012019230769  11.6415264423077 1.45582932692308  12.28515625 2.09945913461538  C 12.9287860576923 2.74308894230769  13.4396033653846 3.50931490384615  13.8176081730769 4.39813701923077  C 14.1956129807692 5.28695913461538  14.3846153846154 6.21834935897436  14.3846153846154 7.19230769230769  C 14.3846153846154 8.69070512820513  13.9623397435897 10.0494791666667  13.1177884615385 11.2686298076923  L 16.6219951923077 14.7728365384615  Z " fill-rule="nonzero" fill="#5b92ff" stroke="none" transform="matrix(1 0 0 1 24 337 )" />
  </g>
</svg>