<?xml version="1.0" encoding="utf-8"?>
<svg version="1.1" xmlns:xlink="http://www.w3.org/1999/xlink" width="18px" height="18px" xmlns="http://www.w3.org/2000/svg">
  <g transform="matrix(1 0 0 1 -24 -189 )">
    <path d="M 0.361204013377926 14  L 17.6387959866221 14  L 17.9899665551839 17.2868303571429  C 18.0100334448161 17.4743303571429  17.9565217391304 17.6417410714286  17.8294314381271 17.7890625  C 17.7023411371237 17.9296875  17.5418060200669 18  17.3478260869565 18  L 0.652173913043478 18  C 0.45819397993311 18  0.297658862876254 17.9296875  0.17056856187291 17.7890625  C 0.0434782608695652 17.6417410714286  -0.0100334448160535 17.4743303571429  0.0100334448160535 17.2868303571429  L 0.361204013377926 14  Z M 16.494983277592 5.30859375  C 16.6153846153846 5.41908482142857  16.685618729097 5.5546875  16.7056856187291 5.71540178571428  L 17.5685618729097 13.5  L 0.431438127090301 13.5  L 1.2943143812709 5.71540178571428  C 1.31438127090301 5.5546875  1.38461538461538 5.41908482142857  1.50501672240803 5.30859375  C 1.62541806020067 5.19810267857143  1.76923076923077 5.14285714285714  1.93645484949833 5.14285714285714  L 4.50501672240803 5.14285714285714  L 4.50501672240803 6.42857142857143  C 4.50501672240803 6.78348214285714  4.6304347826087 7.08649553571428  4.88127090301003 7.33761160714286  C 5.13210702341137 7.58872767857143  5.43478260869565 7.71428571428572  5.78929765886288 7.71428571428572  C 6.1438127090301 7.71428571428572  6.44648829431438 7.58872767857143  6.69732441471572 7.33761160714286  C 6.94816053511706 7.08649553571428  7.07357859531773 6.78348214285714  7.07357859531773 6.42857142857143  L 7.07357859531773 5.14285714285714  L 10.9264214046823 5.14285714285714  L 10.9264214046823 6.42857142857143  C 10.9264214046823 6.78348214285714  11.0518394648829 7.08649553571428  11.3026755852843 7.33761160714286  C 11.5535117056856 7.58872767857143  11.8561872909699 7.71428571428572  12.2107023411371 7.71428571428572  C 12.5652173913043 7.71428571428572  12.8678929765886 7.58872767857143  13.11872909699 7.33761160714286  C 13.3695652173913 7.08649553571428  13.494983277592 6.78348214285714  13.494983277592 6.42857142857143  L 13.494983277592 5.14285714285714  L 16.0635451505017 5.14285714285714  C 16.2307692307692 5.14285714285714  16.3745819397993 5.19810267857143  16.494983277592 5.30859375  Z M 11.7240802675585 1.13002232142857  C 12.4765886287625 1.88337053571429  12.8528428093645 2.79241071428571  12.8528428093645 3.85714285714286  L 12.8528428093645 6.42857142857143  C 12.8528428093645 6.60267857142857  12.7892976588629 6.75334821428571  12.6622073578595 6.88058035714286  C 12.5351170568562 7.0078125  12.3846153846154 7.07142857142857  12.2107023411371 7.07142857142857  C 12.0367892976589 7.07142857142857  11.8862876254181 7.0078125  11.7591973244147 6.88058035714286  C 11.6321070234114 6.75334821428571  11.5685618729097 6.60267857142857  11.5685618729097 6.42857142857143  L 11.5685618729097 3.85714285714286  C 11.5685618729097 3.14732142857143  11.3177257525084 2.54129464285714  10.8160535117057 2.0390625  C 10.314381270903 1.53683035714286  9.70903010033445 1.28571428571429  9 1.28571428571429  C 8.29096989966555 1.28571428571429  7.68561872909699 1.53683035714286  7.18394648829431 2.0390625  C 6.68227424749164 2.54129464285714  6.4314381270903 3.14732142857143  6.4314381270903 3.85714285714286  L 6.4314381270903 6.42857142857143  C 6.4314381270903 6.60267857142857  6.36789297658863 6.75334821428571  6.24080267558528 6.88058035714286  C 6.11371237458194 7.0078125  5.96321070234114 7.07142857142857  5.78929765886288 7.07142857142857  C 5.61538461538462 7.07142857142857  5.46488294314381 7.0078125  5.33779264214047 6.88058035714286  C 5.21070234113712 6.75334821428571  5.14715719063545 6.60267857142857  5.14715719063545 6.42857142857143  L 5.14715719063545 3.85714285714286  C 5.14715719063545 2.79241071428571  5.52341137123746 1.88337053571429  6.27591973244147 1.13002232142857  C 7.02842809364549 0.376674107142857  7.93645484949833 0  9 0  C 10.0635451505017 0  10.9715719063545 0.376674107142857  11.7240802675585 1.13002232142857  Z " fill-rule="nonzero" fill="#5b92ff" stroke="none" transform="matrix(1 0 0 1 24 189 )" />
  </g>
</svg>