<?xml version="1.0" standalone="no"?><!DOCTYPE svg PUBLIC "-//W3C//DTD SVG 1.1//EN" "http://www.w3.org/Graphics/SVG/1.1/DTD/svg11.dtd"><svg t="1636426976898" class="icon" viewBox="0 0 1024 1024" version="1.1" xmlns="http://www.w3.org/2000/svg" p-id="2420" width="16" height="16" xmlns:xlink="http://www.w3.org/1999/xlink"><defs><style type="text/css"></style></defs><path d="M476.724047 726.89122 476.724047 105.931034C476.724047 86.429678 492.534219 70.62069 512.037041 70.62069 531.539862 70.62069 547.350034 86.429678 547.350034 105.931034L547.350034 717.284052 936.527978 328.135256C950.318557 314.345719 972.677508 314.345719 986.468087 328.135256 1000.258666 341.924811 1000.258666 364.282086 986.468087 378.07164L537.007086 827.498955C528.886996 835.618445 517.796193 838.957056 507.233103 837.514787 496.669996 838.957056 485.579211 835.618445 477.459103 827.498955L27.998102 378.07164C14.207523 364.282086 14.207523 341.924811 27.998102 328.135256 41.788681 314.345719 64.147633 314.345719 77.938211 328.135256L476.724047 726.89122 476.724047 726.89122ZM88.281159 900.413793C68.778319 900.413793 52.968166 916.222782 52.968166 935.724138 52.968166 955.225494 68.778319 971.034483 88.281159 971.034483L935.792922 971.034483C955.295744 971.034483 971.105916 955.225494 971.105916 935.724138 971.105916 916.222782 955.295744 900.413793 935.792922 900.413793L88.281159 900.413793 88.281159 900.413793Z" p-id="2421" fill="#1296db"></path></svg>