<?xml version="1.0" encoding="utf-8"?>
<svg version="1.1" xmlns:xlink="http://www.w3.org/1999/xlink" width="35px" height="32px" xmlns="http://www.w3.org/2000/svg">
  <defs>
    <filter x="1470px" y="382px" width="35px" height="32px" filterUnits="userSpaceOnUse" id="filter82">
      <feOffset dx="0" dy="0" in="SourceAlpha" result="shadowOffsetInner" />
      <feGaussianBlur stdDeviation="2.5" in="shadowOffsetInner" result="shadowGaussian" />
      <feComposite in2="shadowGaussian" operator="atop" in="SourceAlpha" result="shadowComposite" />
      <feColorMatrix type="matrix" values="0 0 0 0 1  0 0 0 0 0.266666666666667  0 0 0 0 0.454901960784314  0 0 0 0.996078431372549 0  " in="shadowComposite" />
    </filter>
    <g id="widget83">
      <path d="M 25 2.31578947368421  C 25 1.04210526315789  23.9772727272727 0  22.7272727272727 0  L 2.27272727272727 0  C 1.02272727272727 0  0 1.04210526315789  0 2.31578947368421  L 0 16.2105263157895  C 0 17.4842105263158  1.02272727272727 18.5263157894737  2.27272727272727 18.5263157894737  L 6.81818181818182 18.5263157894737  L 6.81818181818182 16.2105263157895  L 2.27272727272727 16.2105263157895  L 2.27272727272727 2.31578947368421  L 22.7272727272727 2.31578947368421  L 22.7272727272727 16.2105263157895  L 18.1818181818182 16.2105263157895  L 18.1818181818182 18.5263157894737  L 22.7272727272727 18.5263157894737  C 23.9772727272727 18.5263157894737  25 17.4842105263158  25 16.2105263157895  L 25 2.31578947368421  Z M 12.5 15.0526315789474  L 5.68181818181818 22  L 19.3181818181818 22  L 12.5 15.0526315789474  Z " fill-rule="nonzero" fill="#ff4474" stroke="none" transform="matrix(1 0 0 1 1475 387 )" />
    </g>
  </defs>
  <g transform="matrix(1 0 0 1 -1470 -382 )">
    <use xlink:href="#widget83" filter="url(#filter82)" />
    <use xlink:href="#widget83" />
  </g>
</svg>