<?xml version="1.0" encoding="utf-8"?>
<svg version="1.1" xmlns:xlink="http://www.w3.org/1999/xlink" width="12px" height="16px" xmlns="http://www.w3.org/2000/svg">
  <g transform="matrix(1 0 0 1 -134 -399 )">
    <path d="M 1.5 8  C 1.5 5.58909090909091  3.51375 3.63636363636364  6 3.63636363636364  L 6 5.81818181818181  L 9 2.90909090909091  L 6 0  L 6 2.18181818181819  C 2.685 2.18181818181819  0 4.78545454545454  0 8  C 0 9.14181818181818  0.345000000000001 10.2  0.930000000000004 11.0981818181818  L 2.025 10.0363636363636  C 1.69125 9.4290909090909  1.5 8.73818181818181  1.5 8  Z M 12 8  C 12 6.85818181818182  11.655 5.8  11.07 4.90181818181819  L 9.975 5.96363636363637  C 10.30875 6.5709090909091  10.5 7.26181818181819  10.5 8  C 10.5 10.4109090909091  8.48625 12.3636363636364  6 12.3636363636364  L 6 10.1818181818182  L 3 13.0909090909091  L 6 16  L 6 13.8181818181818  C 9.315 13.8181818181818  12 11.2145454545455  12 8  Z " fill-rule="nonzero" fill="#ffffff" stroke="none" transform="matrix(1 0 0 1 134 399 )" />
  </g>
</svg>