<?xml version="1.0" encoding="utf-8"?>
<svg version="1.1" xmlns:xlink="http://www.w3.org/1999/xlink" width="22px" height="16px" xmlns="http://www.w3.org/2000/svg">
  <g transform="matrix(1 0 0 1 -1821 -395 )">
    <path d="M 22 7.99999999999999  L 18 4  L 14 7.99999999999999  L 17 7.99999999999999  C 17 11.315  14.315 14  11 14  C 9.985 14  9.035 13.745  8.195 13.305  L 6.735 14.765  C 7.975 15.54  9.43 16  11 16  C 15.42 16  19 12.42  19 7.99999999999999  L 22 7.99999999999999  Z M 8 7.99999999999999  L 5 7.99999999999999  C 5 4.685  7.68500000000001 2  11 2  C 12.015 2  12.965 2.255  13.805 2.69500000000001  L 15.265 1.23500000000001  C 14.025 0.459999999999992  12.57 0  11 0  C 6.57999999999999 0  3 3.58000000000001  3 7.99999999999999  L 0 7.99999999999999  L 4 12  L 8 7.99999999999999  Z " fill-rule="nonzero" fill="#ffffff" stroke="none" transform="matrix(1 0 0 1 1821 395 )" />
  </g>
</svg>