<?xml version="1.0" encoding="utf-8"?>
<svg version="1.1" xmlns:xlink="http://www.w3.org/1999/xlink" width="13px" height="13px" xmlns="http://www.w3.org/2000/svg">
  <g transform="matrix(1 0 0 1 -998 -1148 )">
    <path d="M 13 6.5  C 13 2.90875  10.09125 0  6.5 0  C 2.90875 0  0 2.90875  0 6.5  C 0 10.09125  2.90875 13  6.5 13  C 10.09125 13  13 10.09125  13 6.5  Z M 11.7 6.5  C 11.7 9.36650000000001  9.36650000000001 11.7  6.5 11.7  C 3.6335 11.7  1.3 9.36650000000001  1.3 6.5  C 1.3 3.6335  3.6335 1.3  6.5 1.3  C 9.36650000000001 1.3  11.7 3.6335  11.7 6.5  Z M 5.2 6.41225  C 5.2 6.19125  5.21625 5.9735  5.252 5.76225  C 5.28775 5.55099999999999  5.35275 5.3625  5.44700000000001 5.19675  C 5.54125000000001 5.03100000000001  5.67125 4.89775  5.8305 4.797  C 5.98325 4.70275  6.175 4.65075  6.41225 4.6475  C 6.56825 4.65075  6.71125 4.67675  6.83475000000001 4.732  C 6.96799999999999 4.7905  7.0785 4.8685  7.17275 4.966  C 7.267 5.0635  7.3385 5.1805  7.3905 5.3105  C 7.4425 5.4405  7.47175 5.58025  7.47825000000001 5.7265  L 8.64175 5.7265  C 8.632 5.421  8.57025 5.1415  8.463 4.888  C 8.35575 4.63449999999999  8.19975 4.41675000000001  8.00475 4.2315  C 7.80975 4.04625  7.57575 3.90649999999999  7.30275 3.80575  C 7.02975 3.705  6.7275 3.653  6.396 3.653  C 5.9735 3.653  5.60625 3.7245  5.29425 3.87075  C 4.98225 4.017  4.72225 4.21525  4.51425 4.46875  C 4.30625 4.72225  4.15025 5.01475  4.04950000000001 5.3495  C 3.94875 5.68425  3.9 6.0385  3.9 6.41225  L 3.9 6.591  C 3.9 6.96799999999999  3.952 7.32225  4.05275 7.65700000000001  C 4.1535 7.99175  4.3095 8.28425  4.5175 8.5345  C 4.7255 8.78475  4.9855 8.983  5.30075 9.12925  C 5.61600000000001 9.2755  5.98325 9.347  6.40575 9.347  C 6.71125 9.347  6.99725 9.29825  7.26375 9.19750000000001  C 7.53025 9.09675  7.76425 8.96025000000001  7.96575 8.78475  C 8.16725000000001 8.60925  8.32975 8.40775  8.44675 8.17375  C 8.56375000000001 7.93975  8.632 7.69275  8.64175 7.42625  L 7.47825000000001 7.42625  C 7.47175 7.56275000000001  7.43925 7.68625000000001  7.38075 7.80325  C 7.32225 7.92025  7.24425 8.01775  7.14675000000001 8.099  C 7.04925 8.18025  6.9355 8.24525  6.8055 8.29075000000001  C 6.682 8.333  6.55200000000001 8.35575  6.41225 8.35575  C 6.17825 8.34925  5.9865 8.30050000000001  5.8305 8.203  C 5.668 8.099  5.538 7.96575  5.44375 7.80000000000001  C 5.3495 7.63425  5.2845 7.44575  5.24875000000001 7.23125  C 5.213 7.01675  5.2 6.80875  5.2 6.59100000000001  L 5.2 6.41225  Z " fill-rule="nonzero" fill="#3bb2a3" stroke="none" transform="matrix(1 0 0 1 998 1148 )" />
  </g>
</svg>