<?xml version="1.0" encoding="utf-8"?>
<svg version="1.1" xmlns:xlink="http://www.w3.org/1999/xlink" width="13px" height="16px" xmlns="http://www.w3.org/2000/svg">
  <g transform="matrix(1 0 0 1 -108 -20 )">
    <path d="M 1 3.55555555555556  L 1 14.2222222222222  C 0.928571428571425 15.2  1.76428571428572 16  2.78571428571428 16  L 10.2142857142857 16  C 11.2357142857143 16  12.0714285714286 15.2  12 14.2222222222222  L 12 3.55555555555556  L 1 3.55555555555556  Z M 5.18607142857143 9.77777777777777  L 3.2175 7.89333333333333  L 4.53142857142857 6.63555555555556  L 6.5 8.52  L 8.46857142857143 6.63555555555556  L 9.7825 7.89333333333333  L 7.81392857142857 9.77777777777777  L 9.7825 11.6622222222222  L 8.46857142857143 12.92  L 6.5 11.0355555555556  L 4.53142857142857 12.92  L 3.2175 11.6622222222222  L 5.18607142857143 9.77777777777777  Z M 13 0.888888888888886  L 9.75 0.888888888888886  L 8.82142857142857 0  L 4.17857142857143 0  L 3.25 0.888888888888886  L 0 0.888888888888886  L 0 2.66666666666666  L 13 2.66666666666666  L 13 0.888888888888886  Z " fill-rule="nonzero" fill="#ffffff" stroke="none" transform="matrix(1 0 0 1 108 20 )" />
  </g>
</svg>