<?xml version="1.0" encoding="utf-8"?>
<svg version="1.1" xmlns:xlink="http://www.w3.org/1999/xlink" width="15px" height="12px" xmlns="http://www.w3.org/2000/svg">
  <g transform="matrix(1 0 0 1 -207 -150 )">
    <path d="M 0 9  L 0 12  L 15 12  L 15 9  L 0 9  Z M 1.5 11.25  L 1.5 9.75  L 3 9.75  L 3 11.25  L 1.5 11.25  Z M 15 0  L 0 0  L 0 3  L 15 3  L 15 0  Z M 3 0.75  L 3 2.25  L 1.5 2.25  L 1.5 0.75  L 3 0.75  Z M 0 4.5  L 0 7.5  L 15 7.5  L 15 4.5  L 0 4.5  Z M 1.5 6.75  L 1.5 5.25  L 3 5.25  L 3 6.75  L 1.5 6.75  Z " fill-rule="nonzero" fill="#5b92ff" stroke="none" transform="matrix(1 0 0 1 207 150 )" />
  </g>
</svg>