<?xml version="1.0" encoding="utf-8"?>
<svg version="1.1" xmlns:xlink="http://www.w3.org/1999/xlink" width="18px" height="18px" xmlns="http://www.w3.org/2000/svg">
  <defs>
    <filter x="317px" y="1014px" width="18px" height="18px" filterUnits="userSpaceOnUse" id="filter78">
      <feOffset dx="0" dy="0" in="SourceAlpha" result="shadowOffsetInner" />
      <feGaussianBlur stdDeviation="2.5" in="shadowOffsetInner" result="shadowGaussian" />
      <feComposite in2="shadowGaussian" operator="atop" in="SourceAlpha" result="shadowComposite" />
      <feColorMatrix type="matrix" values="0 0 0 0 0.254901960784314  0 0 0 0 0.819607843137255  0 0 0 0 0.949019607843137  0 0 0 1 0  " in="shadowComposite" />
    </filter>
    <g id="widget79">
      <path d="M 326 1019  C 328.24 1019  330 1020.76  330 1023  C 330 1025.24  328.24 1027  326 1027  C 323.76 1027  322 1025.24  322 1023  C 322 1020.76  323.76 1019  326 1019  Z " fill-rule="nonzero" fill="#41d1f2" stroke="none" />
      <path d="M 326 1019.5  C 327.96 1019.5  329.5 1021.04  329.5 1023  C 329.5 1024.96  327.96 1026.5  326 1026.5  C 324.04 1026.5  322.5 1024.96  322.5 1023  C 322.5 1021.04  324.04 1019.5  326 1019.5  Z " stroke-width="1" stroke="#314695" fill="none" />
    </g>
  </defs>
  <g transform="matrix(1 0 0 1 -317 -1014 )">
    <use xlink:href="#widget79" filter="url(#filter78)" />
    <use xlink:href="#widget79" />
  </g>
</svg>